<?xml version="1.0" encoding="UTF-8"?>
<!DOCTYPE svg PUBLIC "-//W3C//DTD SVG 1.1//EN" "http://www.w3.org/Graphics/SVG/1.1/DTD/svg11.dtd">
<!-- Creator: CorelDRAW 2020 (64-Bit) -->
<svg xmlns="http://www.w3.org/2000/svg" xml:space="preserve" width="59.9866mm" height="25.9172mm" version="1.1" style="shape-rendering:geometricPrecision; text-rendering:geometricPrecision; image-rendering:optimizeQuality; fill-rule:evenodd; clip-rule:evenodd"
viewBox="0 0 333.81 144.22"
 xmlns:xlink="http://www.w3.org/1999/xlink"
 xmlns:xodm="http://www.corel.com/coreldraw/odm/2003">
 <defs>
  <style type="text/css">
   <![CDATA[
    .fil5 {fill:#373435}
    .fil2 {fill:#2E7C86}
    .fil0 {fill:#D91F2A}
    .fil1 {fill:#D91F2A}
    .fil6 {fill:#373435;fill-rule:nonzero}
    .fil3 {fill:#0576BC}
    .fil4 {fill:#902783}
   ]]>
  </style>
 </defs>
 <g id="Layer_x0020_1">
  <metadata id="CorelCorpID_0Corel-Layer"/>
  <g id="_2412228067472">
   <g>
    <path class="fil0" d="M0.02 72.7l0 -0c0,-9.73 7.96,-17.7 17.7,-17.7l68.88 0c9.73,0 17.7,7.96 17.7,17.7l0 0c0,9.73 -7.96,17.7 -17.7,17.7l-68.88 0c-9.73,0 -17.7,-7.96 -17.7,-17.7z"/>
    <path class="fil1" d="M17.83 108.56c9.85,0 17.83,7.98 17.83,17.83 0,9.85 -7.98,17.83 -17.83,17.83 -9.85,0 -17.83,-7.98 -17.83,-17.83 0,-9.85 7.98,-17.83 17.83,-17.83z"/>
    <path class="fil2" d="M86.71 0c9.85,0 17.83,7.98 17.83,17.83 0,9.85 -7.98,17.83 -17.83,17.83 -9.85,0 -17.83,-7.98 -17.83,-17.83 0,-9.85 7.98,-17.83 17.83,-17.83z"/>
    <path class="fil3" d="M17.7 1.57l0 0c9.73,0 17.7,7.96 17.7,17.7l0 53.43c0,9.73 -7.96,17.7 -17.7,17.7l-0 0c-9.73,0 -17.7,-7.96 -17.7,-17.7l0 -53.43c0,-9.73 7.96,-17.7 17.7,-17.7z"/>
    <path class="fil4" d="M86.52 55l0 0c9.73,0 17.7,7.96 17.7,17.7l0 53.43c0,9.73 -7.96,17.7 -17.7,17.7l-0 0c-9.73,0 -17.7,-7.96 -17.7,-17.7l0 -53.43c0,-9.73 7.96,-17.7 17.7,-17.7z"/>
   </g>
   <g>
    <path class="fil5" d="M147.25 61.76l0 19.28 -7.31 0 0 -44.89 7.31 0 0 19.28 5.21 0c3.57,0 6.37,2.48 6.37,5.53l0 0.81 -11.58 0zm14.55 -25.61l7.31 0 0 44.89 -7.31 0 0 -44.89zm17.8 32.08l0 -32.08 0.94 0c3.49,0 6.37,2.48 6.37,5.47l0 26.67c0,3.41 3.28,6.47 7.31,6.47 4.05,0 7.31,-2.88 7.31,-6.34l0 -26.8c0,-2.99 2.88,-5.47 6.37,-5.47l0.94 0 0 32.27c0,6.97 -6.57,12.62 -14.69,12.62 -8.1,0 -14.54,-5.94 -14.54,-12.81zm51.04 -25.34c-0.47,-0.1 -0.99,-0.22 -1.48,-0.22 -2.53,0 -4.56,1.82 -4.56,3.98l0 34.38 -7.31 0 0 -34.32c0,-5.73 5.27,-10.26 11.94,-10.26 3.07,0 5.96,1.03 8.17,2.82 0.07,-0.05 0.13,-0.09 0.2,-0.14 1.81,-1.47 4.22,-2.4 6.68,-2.67 0.43,-0.07 0.87,-0.07 1.31,-0.07 6.57,0 11.87,4.63 11.87,10.26l0 34.38 -7.31 0 0 -34.32c0,-2.22 -2.03,-4.04 -4.61,-4.04 -2.5,0.1 -4.51,1.79 -4.51,3.98l0 11.25c0,3.02 -2.84,5.47 -6.37,5.47l-0.94 0 0 -16.79c0,-1.68 -1.23,-3.17 -3.08,-3.7zm41.93 15.89l4.34 0c3.52,0 6.37,2.45 6.37,5.47l0 0.81 -10.71 0 0 15.98 -0.94 0c-1.81,0 -3.62,0 -5.43,0l-0.94 0 0 -32.02c0,-6.91 6.42,-12.75 14.54,-12.75 8.11,0 14.69,5.58 14.69,12.56l0 32.21 -7.31 0 0 -32.21c0,-3.44 -3.31,-6.28 -7.31,-6.28 -4.11,0 -7.31,2.99 -7.31,6.47l0 9.76zm39.29 9.39c0,3.53 3.26,6.41 7.38,6.41 3.51,0 6.47,-2.26 7.11,-5.19l0.14 -0.66 7.32 0 -0.11 0.89c-0.78,6.43 -7.09,11.29 -14.61,11.29 -8.1,0 -14.54,-5.94 -14.54,-12.81l0 -19.28c0,-6.81 6.24,-12.61 14.25,-12.81 7.65,0 14.13,4.67 14.9,11.3l0.1 0.89 -7.32 0 -0.14 -0.66c-0.64,-2.93 -3.6,-5.19 -7.11,-5.19 -4.12,0 -7.38,2.88 -7.38,6.41l0 19.4z"/>
    <path class="fil6" d="M139.93 107.35l2.45 0 0 -5.64 3.75 0c2.79,0 5.19,-1.82 5.19,-5.06 0,-3.21 -2.41,-5.03 -5.19,-5.03l-6.2 0 0 15.73zm2.45 -7.78l0 -5.82 3.6 0c1.78,0 2.97,1.17 2.97,2.9 0,1.75 -1.19,2.92 -2.97,2.92l-3.6 0zm23.06 7.78l-3.42 -6.29c1.82,-0.65 3.15,-2.23 3.15,-4.54 0,-3.1 -2.41,-4.9 -5.19,-4.9l-6.47 0 0 15.73 2.45 0 0 -5.96 3.73 0 3.03 5.96 2.72 0zm-9.48 -13.55l3.78 0c1.75,0 2.94,1.1 2.94,2.74 0,1.64 -1.19,2.72 -2.94,2.72l-3.78 0 0 -5.46zm11.3 13.55l2.47 0 0 -15.73 -2.47 0 0 15.73zm5.53 0l2.47 0 0 -11.78 7.96 11.78 2.81 0 0 -15.73 -2.49 0 0 11.78 -7.96 -11.78 -2.79 0 0 15.73zm20.41 0l2.47 0 0 -13.55 5.3 0 0 -2.18 -13.08 0 0 2.18 5.3 0 0 13.55zm19.6 0.85c1.84,0 3.73,-0.7 5.01,-2l1.08 1.15 2.63 0 -2.38 -2.63c0.79,-1.08 1.53,-2.49 2.02,-4.18l-2.56 -0.02c-0.18,0.76 -0.61,1.66 -1.08,2.36l-3.46 -3.66c1.96,-1.51 2.94,-2.81 2.94,-4.56 0,-1.71 -1.37,-3.51 -3.96,-3.51 -2.56,0 -4.11,1.75 -4.11,3.62 0,1.46 1.08,2.88 2.2,4.14 -1.91,1.3 -3.75,2.7 -3.75,4.97 0,2.81 2.63,4.34 5.42,4.34zm0.09 -10.43c-0.76,-0.81 -1.78,-1.98 -1.78,-2.9 0,-1.03 0.83,-1.84 1.93,-1.84 1.24,0 1.87,0.83 1.87,1.78 0,0.9 -0.61,1.82 -2.02,2.97zm0 8.2c-1.62,0 -2.99,-0.88 -2.99,-2.36 0,-1.39 1.42,-2.34 2.56,-3.19l3.8 4.07c-0.79,0.94 -2.09,1.48 -3.37,1.48zm16.34 1.37l5.82 0c4.2,0 7.82,-2.83 7.82,-7.89 0,-5.06 -3.62,-7.87 -7.82,-7.87l-5.82 0.02 0 15.73zm2.47 -2.43l0 -10.88 3.26 -0.02c3.01,0 5.44,1.82 5.44,5.44 0,3.62 -2.43,5.46 -5.44,5.46l-3.26 0zm13.49 2.43l10.72 0 0 -2.2 -8.25 0 0 -4.61 8.07 0 0 -2.16 -8.07 0 0 -4.56 8.25 0 0 -2.2 -10.72 0 0 15.73zm18.34 0.25c3.21,0 5.78,-1.8 5.78,-4.7 0,-3.15 -2.97,-3.78 -5.19,-4.38 -1.89,-0.49 -3.82,-0.83 -3.82,-2.56 0,-1.26 1.15,-2.4 3.03,-2.4 1.66,0 2.7,0.85 3.19,2.38l2.27 -0.65c-0.79,-2.54 -2.72,-3.93 -5.51,-3.93 -3.12,0 -5.53,1.95 -5.53,4.61 0,3.1 2.72,3.91 5.03,4.49 1.91,0.52 3.96,0.74 3.96,2.52 0,1.44 -1.33,2.38 -3.19,2.38 -1.73,0 -3.24,-0.88 -3.73,-2.54l-2.38 0.68c0.77,2.63 3.17,4.11 6.09,4.11zm7.91 -0.25l2.47 0 0 -15.73 -2.47 0 0 15.73zm13.66 -8.2l0 2.4 3.95 0 0 0.63c-0.81,1.93 -2.47,2.9 -4.85,2.9 -3.08,0 -5.46,-2.52 -5.46,-5.6 0,-3.08 2.38,-5.6 5.46,-5.6 2.22,0 3.89,1.17 4.81,2.9l2.2 -1.17c-1.3,-2.54 -3.8,-4.23 -6.99,-4.23 -4.52,0 -7.98,3.62 -7.98,8.09 0,4.47 3.46,8.09 7.98,8.09 3.53,0 6.43,-1.66 7.39,-4.85l0 -3.57 -6.52 0zm8.88 8.2l2.47 0 0 -11.78 7.96 11.78 2.81 0 0 -15.73 -2.49 0 0 11.78 -7.96 -11.78 -2.79 0 0 15.73z"/>
   </g>
  </g>
 </g>
</svg>
