<?xml version="1.0" encoding="UTF-8"?>
<!DOCTYPE svg PUBLIC "-//W3C//DTD SVG 1.1//EN" "http://www.w3.org/Graphics/SVG/1.1/DTD/svg11.dtd">
<!-- Creator: CorelDRAW 2020 (64-Bit) -->
<svg xmlns="http://www.w3.org/2000/svg" xml:space="preserve" width="122.767mm" height="122.767mm" version="1.1" style="shape-rendering:geometricPrecision; text-rendering:geometricPrecision; image-rendering:optimizeQuality; fill-rule:evenodd; clip-rule:evenodd"
viewBox="0 0 1397.25 1397.25"
 xmlns:xlink="http://www.w3.org/1999/xlink"
 xmlns:xodm="http://www.corel.com/coreldraw/odm/2003">
 <defs>
  <style type="text/css">
   <![CDATA[
    .fil0 {fill:#E6E7E8}
    .fil1 {fill:#ED3237}
   ]]>
  </style>
 </defs>
 <g id="Layer_x0020_1">
  <metadata id="CorelCorpID_0Corel-Layer"/>
  <rect class="fil0" x="-0" y="-0" width="1397.25" height="1397.25"/>
  <g id="_2883000643696">
   <path class="fil1" d="M597.36 1029.68c-0.09,2.97 -0.02,4.63 1.34,6.61l0.9 0.11c-1.06,-11.46 2.81,-6.72 9.92,-7.63l1.95 -4.1 8.91 -0 -0.7 6.18c1.35,0.34 -0.78,-0.65 1.9,0.53 2.03,0.9 0.85,0.3 1.98,1.2l-0.3 4.27 -6.18 -0.04 0.05 -1.77c-1.6,1.06 -10.2,14.3 -26.87,10.29 -8.74,-2.1 -18.68,-10.75 -18.61,-20.66l9.24 0.02 1.74 3.71c3.18,0.44 2.56,-0.22 4.64,1.53l0.58 4.15 0.81 0.1c1.71,-2.46 -0.76,-2.11 2.47,-4.67l-0.94 -1.69 -1.57 -3.15 14.8 0.03c-0.86,3.32 -2.55,3.76 -6.06,4.96zm-47.68 -240.37l297.91 0.34 0.33 81.23c-1.47,1.46 3,0.83 -2.65,1.51l-89.84 -0.01c-1.25,0.2 -1.1,0.49 -1.69,0.72 -2.42,0.91 -1.13,-0.94 -3.37,0.71 1.57,1.6 1.16,0.66 3.05,2.09 2.63,1.97 -0.97,0.94 2.72,1.56l89.13 0c5,0.15 1.17,-0.16 2.5,1.23l0.14 86.78c-1.71,1.65 3.09,1.25 -2.64,1.39 -49.43,0 -98.86,0 -148.29,0 -16.53,0 -143.2,0.95 -148.21,-0.62 -1.44,-4.1 -1.72,-84.02 0.1,-88.3 10.25,-2.51 80.84,1.54 90.93,-0.86l-0.11 -4.62c-16.81,-0.9 -83.16,1.37 -91.21,-0.66 -1.05,-4.78 -0.9,-71.04 -0.5,-80.01 0.46,-5.11 -0.12,-1.22 1.71,-2.45zm-31.21 -355.42c0.61,-3.09 2.67,-4.55 5.46,-5.5l18.46 -0.64c1.91,4.74 0.82,161.95 0.82,189.59 0,20.68 0.68,42.51 -0.08,63.06l4.85 0.32 -0.02 -61.07c-0.09,-10.78 -0.13,-7.08 1.33,-8.13l297.97 0.62c0.96,1.43 0.75,1.62 0.74,4.38 -0,1.55 -0.04,3.1 -0.04,4.66l-0.01 67.37 6.55 -2.82 0.03 -257.43c3.34,-0.38 14.47,-0.59 17.62,-0.09 5.35,0.86 7.05,5.25 7.08,10.86l-0.03 245.88c0.29,93.42 0.59,187.29 -0.01,280.85l-24.68 -0.25 -0.02 -240.64c-7.05,-3.99 -1.5,-6.13 -0.37,-9.99l-0.15 -6.3 -6.06 -2.51c0.04,3.51 0.1,14.22 2.89,17.11l-2.02 1.65c-2.8,3.1 1.06,53.36 -1.51,57.54l-298.01 0.57c-0.63,-0.62 -1.24,-0.13 -1.4,-4.24l0.16 -57.75 -4.95 0.23c0.59,4 1.98,1.54 4.84,0.79 -1.21,2.23 -1.72,2.64 -4.75,2.42 0.32,23.38 0.97,236.92 -0.7,241.74 -4.24,1.44 -21.38,1.68 -25,-0.38 -1.13,-6.45 -0.3,-180.82 -0.3,-196.31l0.02 -56.03c0.24,-8.41 0.41,-7.53 -2.16,-10 3.26,-2.89 2.4,-9.92 1.64,-15.11 -0.67,-4.58 0.51,-10.28 0.5,-15.66l0 -102.96c0,-12.15 -1.36,-134.21 1.28,-135.82zm30.7 28.09l298.44 0.12 -0.1 142.9 -298.46 0 0.12 -143.03zm-6.35 -105.17l0.34 11.66 4.84 0.31 0.14 -9.67c0.49,-2.01 0.04,-1.12 1.12,-2.23 1.74,-4.06 3.03,-5.21 8.61,-5.32 31.24,-0.6 69.12,0.03 100.69,0.02 18.48,0 13.97,-2.77 24.38,33.15 1.63,5.62 10.66,42.12 13.62,43.32l151.06 0.15 -0.28 26.91 -297.68 0.27c-1.65,-1.17 -0.96,0.14 -1.67,-2.42 -0.01,-0.05 -0.08,-2.86 -0.07,-3.11 0.02,-2.06 0.05,-4.1 0.05,-6.16l0.08 -34.65 -4.96 0.21c0.61,4.01 1.97,1.56 4.85,0.8 -1.21,2.24 -1.71,2.65 -4.64,2.42l-0.64 8.97c-3.93,1.26 -14.35,1.28 -18.3,0.31 -11.6,-0.82 -13.43,11.76 -13.41,20.4l0 167.5c0,21.98 0.64,44.92 -0.07,66.78 2.11,0.98 1.22,0.5 3.24,2.21l-0.58 4.31 -2.71 1.17 0.08 2.13 2.31 0.39 0 21.24 -2.3 0.39 -0.14 8.23 5.08 1.1c1.17,5.32 0.35,6.54 -5.1,7.06l0.12 263.65c4.04,1.98 3.76,3.24 2.2,7.52 0.81,3.78 1.59,3.24 2.47,3.88 1.17,-1.32 0.42,0.1 0.85,-2.1 0.08,-0.42 0.16,-1.9 0.31,-2.75 0.17,-1.01 0.64,-2.86 0.85,-3.87l0.25 -18.29 24.15 -0.2c1.11,1.31 0.48,-1.36 1.26,2.81l-0.08 17.03 4.85 0.32c-0.08,-6 -1.14,-14.95 0.76,-20.4 5.02,-1.59 131.48,-0.63 148.21,-0.63 49.43,0 98.86,0 148.29,0 5.49,0.18 1.1,-0.26 2.61,1.42l-0.56 24.37 -11.91 -0.03c-6.95,-9.84 -13.27,-17.05 -27.14,-19.66 -12.23,-2.3 -29.19,2.53 -34.11,9.9 0.79,3.83 2.44,1.58 1.49,7.33 -2.95,1.08 -4.55,1.7 -7.17,-0.66l-2.51 3.13 -135.07 -0.13c-8.32,-10.66 -15.97,-20.15 -34.57,-20.26 -8.17,-0.05 -15.98,2.4 -21.48,6.07 -4.49,2.99 -11.36,8.59 -12.68,13.95 -2.45,2.45 -10.72,1.52 -13.85,1.11l7.22 0.19 0.06 4.96 -6.84 0.01c21.02,0.04 2.36,-1.83 20.03,-5.65 2.33,-0.48 3.49,-7.04 15.26,-11.5 11.29,-4.28 21.85,-2.39 31.31,4.06 7.15,4.87 15.12,17.03 13.08,27l0.47 2.73c-2.48,0.02 -5.33,0.32 -7.56,-0.39 -12.51,-3.96 -7.36,2.73 -14.58,-0.04 -0.22,-0.09 -0.86,-0.47 -1.01,-0.55 -3.9,-1.98 -6.91,2.44 -14.05,1.2 -5.44,-0.94 -6.05,-2.17 -13.09,-1.76 -4.26,0.25 -11.92,4.88 -18.24,-0.93 -1.74,-1.6 -2.63,-3.68 -3.75,-3.95l0.98 6.11c0.58,4.16 4.06,4.45 6.8,5.32 3.24,16.17 14.18,28.1 31.94,27.88 27.18,-0.34 31.36,-27.5 31.38,-27.52 3.75,-2.25 7.2,-2.36 7.88,-7.67 0.58,-4.56 -0.99,-9.21 -1.58,-13.35l128.67 -0.04c-1.44,9.78 -5.08,18.73 6.56,20.46l0.2 1.53 2.52 2.82 4.65 -0.43 -0.6 -3.26c0.05,-0.2 0.3,-0.42 0.36,-0.58 0.06,-0.17 0.28,-0.41 0.49,-0.53l8.53 0.46c1.82,4.93 4.6,9.52 10.01,10.2 3.87,-0.65 2.44,0.59 3.71,-1.93 -2.47,-0.89 -1.47,0.56 -4.15,-1.74l5.75 0.11 2.54 4.55 -0.24 0.33c-1.17,-1.77 -1.76,-2.97 -0.77,-5.57 -0.26,-0 -1.39,0.09 -1.63,0.03 -2.26,-0.65 -1.69,-0.48 -2.98,-1.52 -2.74,-1.56 -3.11,-0.98 -4.51,-4.53l14.99 0.18c-0.74,1.56 -0.96,1.15 -1.27,2.78 1.16,0.93 1.74,0.66 2.46,1.27 2.51,2.16 0.04,1.36 1.97,2.82 2.5,-1.56 2.97,-4.09 4.8,-6.92l8.45 -0.13 1.08 1.49 -0.5 2.57 2.92 0.21c-1.48,2.08 -1.49,2.26 -2.61,4.98 -1.78,4.32 -0.89,2 -0.7,4.8l-3.02 0.09c0.43,-2.22 0.93,0.27 1.15,-3.5l-1.35 -0c-3.02,1.97 -3.85,4.77 -8.16,7.26 -3.84,2.21 -8.1,3.56 -13.39,3.4 -9.39,-0.27 -17.16,-5.97 -20.32,-12.31 -2.27,1.05 -0.19,-0.02 -1.76,1.02 -0.02,0.01 -1.31,0.9 -1.41,0.97 -2.04,1.46 -1.65,0.2 -2,3.11 6.03,8.77 18,17.08 34.37,13.08 6.45,-1.57 11.99,-5.27 15.74,-9.6 6.6,-7.63 6.76,-14.85 7.78,-16.31 2.45,-3.48 6.32,-0.67 7.91,-8.67 -15.31,6.91 -12.34,0.25 -21.1,1.14 -4.43,0.45 1.49,4.34 -11.86,0.49 -11.39,-3.28 -13.05,3.59 -24.99,0.37 -7.85,-2.11 -4.51,-0.02 -9.25,0.7 -0.67,0.1 -2.34,-0.01 -3.26,0.08l-1.35 -2.4c-1.49,-2.84 0.6,-8.01 0.72,-11.38l0.18 -7.78 3.96 -0.02c4.64,-4.53 5.26,-6.4 11.16,-10.06 12.35,-7.65 29.07,-5.21 39.12,4.8 1.24,1.23 1.36,1.6 2.45,2.95 0.02,0.03 1,1.19 1.01,1.2 1.12,1.19 0.56,0.53 1.03,0.88 6.96,-0.7 10.94,1.22 13.14,5.31 4.77,0.01 3.9,0.28 6.75,-2.42 2.34,-2.21 3.63,-2 6.13,-3.48l0.4 -25.29c4.13,-1.52 21.37,-1.74 25.08,0.31 0.58,3.07 0.27,6.43 0.28,9.61l-0.17 6.83c-0.37,1.65 -0.15,0.7 -0.82,1.6 -0.74,3.07 -2.02,4.35 -4.55,5.71l-0.12 5.07c0.74,2.4 -0.66,1.23 2.03,1.41 13.34,-3.82 9.87,-23.49 9.87,-39.06l0 -145.22c0,-37.12 1.34,-382.21 -1.1,-387.81 -5.75,-13.16 -20.81,-9.7 -39.71,-9.7 -22.16,0 -132.63,0.95 -144.85,-0.14l-8.72 -30.79 -0.79 -1.16c-0.87,-1.81 -0.08,0.65 -0.26,-1.72 5.12,-1.02 70.55,-0.9 78.61,-0.3l0.06 -5.15c-0.46,0.03 -75.06,0.96 -78.56,-0.01 -2.17,-0.6 -1.03,-0.03 -2.23,-1.28 0.59,-3.41 -4.4,-15.6 -5.14,-20.51l184.71 0.18c1.43,1.4 1.64,1.46 2.47,3.95 1.27,0.55 1.78,0.69 3.59,1.26l0.03 15.4c3.88,-1.62 3.05,-1.68 2.99,-7.07 -0.04,-3.14 -0.46,-6.85 -0.01,-9.69 0.01,-4.02 -1.84,-6.7 -4.24,-8.78 -3.2,-2.77 -6.21,-2.12 -10.75,-2.11 -18.88,0.05 -174.94,0.72 -181.33,-0.34 -3.12,-4.39 -4.67,-7.64 -11.5,-8.12 -6.07,-0.43 -13.75,-0.03 -20,-0.03 -12.19,0 -92.94,-1.31 -98.68,1.05 -3.81,1.57 -8.29,5.95 -7.85,11.03z"/>
   <path class="fil1" d="M543.3 703.31c0.29,2.87 1.9,3.42 4.67,4.83l-0.06 11.37c-0.3,-2.2 -1.85,-2.99 -4.73,-2.75l0.11 -13.45zm-24.84 -269.43c-2.65,1.6 -1.28,123.66 -1.28,135.82l0 102.96c0.01,5.38 -1.16,11.09 -0.5,15.66 0.76,5.19 1.62,12.23 -1.64,15.11 2.57,2.47 2.4,1.59 2.16,10l-0.02 56.03c0,15.49 -0.83,189.86 0.3,196.31 3.62,2.05 20.76,1.82 25,0.38 1.67,-4.81 1.01,-218.35 0.7,-241.74 3.03,0.22 3.54,-0.19 4.75,-2.42 -2.86,0.75 -4.25,3.21 -4.84,-0.79l4.95 -0.23 -0.16 57.75c0.16,4.11 0.78,3.62 1.4,4.24 -0.6,-13.58 -0.11,-28.23 -0.11,-41.93 0,-8.1 -0.94,-34.84 0.58,-40.74 -2.05,-1.76 -0.88,1.17 -1.5,-3.03 0,-0 0.05,-3.15 0.03,-3.08l8.59 0.2 -0.04 6.14 6.52 0.01c-0.84,-3.18 -2.07,-5.72 2.15,-6.17 2.66,-0.29 6.95,-0.14 8.74,0.57 1.11,2.66 0.6,3.19 -0.11,5.65l14.85 -0.13 -0.27 -5.89 17.58 -0.23 -0.19 6.18 15.18 -0.09 -2.36 -2.87c-0.74,-1.06 -0.22,-0.2 -0.65,-1.3l-0.09 -0.95c2.81,-1.94 34.1,-0.9 37.29,-0.9 33.01,0 85.09,1.43 113.86,-0.12l-0.19 6.28 6.23 0 -0.13 -6.28c6.27,0.34 18.02,-1.97 17.43,6.2l6.5 0.1 -1.35 -6.15 6.6 0.04 -0.15 6.04 6.2 0.12 -0.17 -5.71c0.2,-0.07 0.46,-0.14 0.62,-0.18 0.16,-0.03 0.44,-0.12 0.64,-0.16l7.29 -0.2 -0.04 6.13 6.53 0.01 -0.29 -5.6c2.86,-1.01 8.84,-0.94 11.17,0 1.11,2.67 0.6,3.18 -0.11,5.65l11.22 -0.06 -0.07 81.86c2.57,-4.18 -1.29,-54.44 1.51,-57.54l2.02 -1.65c-2.79,-2.89 -2.85,-13.6 -2.89,-17.11l6.06 2.51 0.15 6.3c-1.13,3.86 -6.68,6 0.37,9.99l0.12 -22.73 -2.72 -0.16c-2.08,-4.31 -1.91,-5.25 0.07,-9.53l2.65 -0.14 -0.11 -6.62 -6.55 2.82 0.01 -67.37c0,-1.55 0.03,-3.11 0.04,-4.66 0.01,-2.77 0.22,-2.96 -0.74,-4.38l0.29 81.35 -298.38 -0.05 0.12 -81.93c-1.46,1.05 -1.42,-2.65 -1.33,8.13l0.02 61.07 -4.85 -0.32c0.75,-20.55 0.08,-42.39 0.08,-63.06 0,-27.64 1.09,-184.85 -0.82,-189.59l-18.46 0.64 18.06 -0.13 0.01 537.35 -23.94 0.02c-0.61,-65.94 -0.03,-133.09 -0.03,-199.22l0 -298.89c0,-8.73 -0.95,-25.88 0.43,-33.63z"/>
   <path class="fil1" d="M713.93 877.42c0.02,-3.6 -0.4,-2.76 1.48,-4.39 1.82,0.7 1.94,-1.36 2.07,4.21l-3.55 0.18zm-2.36 -4.28c1.41,2.15 1,1.41 1.01,4.35l-3.56 -0.01c0.03,-3.64 -0.46,-3.71 2.55,-4.34zm-4.82 -0.71c1.37,2.21 0.97,1.59 0.92,5.01l-3.33 0.02 0.06 -5.17 2.34 0.14zm-3.91 -0l0.03 4.88 -7.81 0.17c1.03,-2.85 0.97,-3.42 2.66,-5.08l5.12 0.03zm-14.41 0c2.49,0.19 2.8,2.93 3.65,5l-4.68 -0.39c-0.01,-3.54 -0.47,-2.46 1.03,-4.61zm-4.39 0c2.85,0.45 2.06,2.2 2.03,4.98l-3.03 0.09c-0.04,-3.46 -0.48,-2.88 1,-5.07zm51.35 0.81c1.58,1.89 1.96,1.28 0.93,4.02l-4.09 -0.32c-1,-2.19 -0.92,-1.45 0.38,-3.6l2.78 -0.1zm-12.67 0.35c3.45,-1.19 4.95,0.26 3.77,3.74 -3.91,0.15 -6.05,-0.1 -3.77,-3.74zm-76.83 3.85c-4.53,-0.11 -5.73,-0.25 -3.74,-4.27 3.98,-0.07 4.93,0.44 3.74,4.27zm27.55 -5.04l8.93 0.03c0,5.29 1.36,5.49 -3.13,5.49 -2.25,0 -4.9,-0.62 -7.62,-0.68 -1.09,-0.2 -0.78,1.24 -0.89,-2.66l-6.26 -0.13c1.35,1.23 0.3,0.62 2.5,1.32 0.03,0.01 1.43,0.12 1.93,0.27 -0.79,1.47 0.8,1.2 -2.65,1.37 -3.94,0.19 -5.33,-1.98 -3.38,-5.16l10.58 0.15zm-12.92 -0.08l0.71 5.12 -7.63 0.05c1.15,-3.06 0.84,-3.26 2.66,-5.07l4.27 -0.09zm87.41 3.87c-0.39,-2.86 -0.12,-2.52 -2.06,-3.84l3.53 0.03 -0.11 3.05 3.68 1.34c-1.71,0.96 -8.56,0.85 -11.34,0.25 1.61,-1.23 3.35,-0.84 6.3,-0.85zm-27.92 1.29c-3.24,-1.74 0.7,-2.14 -2.47,-5.12l4.91 0.04c-2.93,1.23 -1.35,2.97 -2.44,5.08zm127.88 87.96l-298.72 0.2 0 -87.14 298.58 0.16c-1.32,-1.39 2.5,-1.07 -2.5,-1.23l-89.13 0c-3.69,-0.62 -0.09,0.41 -2.72,-1.56 -1.9,-1.42 -1.48,-0.48 -3.05,-2.09 2.23,-1.65 0.94,0.2 3.37,-0.71 0.59,-0.22 0.44,-0.51 1.69,-0.72l89.84 0.01c5.65,-0.68 1.17,-0.05 2.65,-1.51l-298.73 0.23c0,-13.64 0,-27.29 0,-40.93 0,-9.26 -1.13,-33.33 0.49,-40.86 -1.83,1.22 -1.25,-2.67 -1.71,2.45 -0.4,8.97 -0.55,75.23 0.5,80.01 8.05,2.04 74.4,-0.23 91.21,0.66l0.11 4.62c-10.09,2.41 -80.68,-1.65 -90.93,0.86 -1.82,4.28 -1.54,84.2 -0.1,88.3 5.01,1.57 131.68,0.62 148.21,0.62 49.43,0 98.86,0 148.29,0 5.73,-0.14 0.93,0.26 2.64,-1.39z"/>
   <path class="fil1" d="M653.36 897.14l89.85 -0.25c0.29,4.32 0.93,11.06 -0.65,14.22 -1.83,1.74 -66.29,0.64 -77.86,0.66 -13.56,0.02 -11.37,2.81 -11.34,-14.63zm3.66 21.54c26.64,0 54.81,0 82.98,0 6.68,0 9.86,-2.86 10.19,-9.32 0.26,-5.01 0.66,-14.73 -0.84,-18.59 -5.07,-1.6 -86.44,-0.74 -97.71,-0.74 -4.33,0 -5.06,1.27 -5.18,5.38 -0.4,13.25 -1.56,23.27 10.56,23.27z"/>
   <path class="fil1" d="M739.23 734.1c-15.23,0 -74.63,0.63 -85.09,-0.2 -1.56,-4.33 -0.79,-10.07 -0.64,-14.67l89.78 0.03c0.17,12.52 1.53,14.85 -4.05,14.85zm-92.67 -0.75c1.01,10.31 15.49,7.59 25.05,7.59 11.01,0 22.03,0 33.04,0 49,0 45.32,3.46 45.56,-20.66 0.09,-8.99 -0.66,-8.02 -9.44,-7.97l-82.21 0c-8.99,-0.01 -14.53,-4.79 -11.99,21.04z"/>
   <path class="fil1" d="M653.62 808.21l89.64 0.29c0.33,3.83 0.51,10.79 -0.43,13.77 -5.3,1.38 -85.91,1.12 -89.4,-0.27l0.19 -13.79zm-7.12 -0.32c0.01,10.39 -2.51,21.75 9.75,21.75l83.75 0c7.67,0 10.16,-3.55 10.22,-10.96 0.09,-10.52 1.69,-17.28 -4.84,-17.28l-93.74 -0c-5.23,0 -5.14,1.77 -5.14,6.5z"/>
   <path class="fil1" d="M742 644.88c-3.28,1.85 -44.41,0.56 -51.94,0.56 -42.95,0 -37.62,3.22 -36.6,-14.93l89.64 0c0.34,2.63 0.27,4.94 0.3,7.59 0.08,6.98 -0.14,5.59 -1.41,6.78zm1.08 -21.24l-91.43 0c-6.87,0 -5.11,3.02 -5.16,16 -0.03,7.59 1.46,12.1 8.94,12.62l86.16 -0.02c7.57,-0.62 8.66,-5.98 8.62,-13.39 -0.07,-14.62 1.56,-15.21 -7.13,-15.21z"/>
   <path class="fil1" d="M564.42 445.11c0.74,6.4 13.27,4.32 24.22,4.32l56.86 0c15.48,0.03 13.29,-2.03 13.29,-16.5 -0,-18.95 -0.09,-37.91 0.01,-56.86 0.07,-14.14 -3.92,-11.68 -17.14,-11.68 -9.21,0 -20.38,0.56 -29.34,-0.18l-0.14 5.71c9.37,1.56 32.06,-1.98 40.33,0.75 0.6,7.99 0.94,67.54 -0.36,72.04 -3.82,1.63 -75.2,1.59 -82.05,0.32 -1.69,-5.78 -0.66,-37.8 -0.66,-46.34l-5.14 -0.82 0.05 7.09c1.21,5.75 -1.55,-4.49 0.96,1.85 0.5,1.25 0.45,-0.21 0.1,1.21 -2.4,9.73 -0.87,28.66 -0.99,39.08z"/>
   <path class="fil1" d="M523.04 997.26c3.58,2.01 14.94,1.75 19.43,0.93l-6.15 0.12 -0.08 5.04 5.93 -0.09c-5,0.21 -7.79,0.76 -11.97,-0.95 -2.49,-1.02 -8.23,-2.41 -7.15,-5.06zm18.92 -24.75l-0.05 24.77 -18.87 -0.03c-1.42,-1.57 -1.75,-1.09 -3.25,-2.96 -0.83,-1.03 -0.55,-0.85 -1.24,-1.9 -1,-1.51 0.08,-0.32 -0.99,-1.4 -0.2,1.01 -0.67,2.86 -0.85,3.87 -0.15,0.85 -0.22,2.33 -0.31,2.75 -0.43,2.2 0.32,0.78 -0.85,2.1 3.51,5.91 13.31,4.56 19.29,4.77 7.66,0.27 15.26,-0.24 23.16,0.14 -0.22,1.65 -3.71,14.01 -0.41,15.02l-0.98 -6.11c1.12,0.28 2.01,2.35 3.75,3.95 6.32,5.81 13.99,1.18 18.24,0.93 7.04,-0.41 7.65,0.82 13.09,1.76 7.14,1.24 10.15,-3.18 14.05,-1.2 0.15,0.08 0.79,0.46 1.01,0.55 7.23,2.77 2.07,-3.93 14.58,0.04 2.23,0.71 5.08,0.4 7.56,0.39l-0.47 -2.73c-3.18,0.75 -61.37,0.94 -64.91,0.18 -0.57,-7.28 3.21,-14.12 5.27,-19.73 -17.67,3.82 0.99,5.7 -20.03,5.65l6.84 -0.01 -0.06 -4.96 -7.22 -0.19c3.14,0.41 11.4,1.35 13.85,-1.11l-12.96 0.14 -0.02 -24.37 298.69 0.21c-1.51,-1.68 2.88,-1.24 -2.61,-1.42 -49.43,0 -98.86,0 -148.29,0 -16.73,0 -143.19,-0.95 -148.21,0.63 -1.91,5.44 -0.85,14.4 -0.76,20.4l-4.85 -0.32 0.08 -17.03c-0.79,-4.17 -0.16,-1.5 -1.26,-2.81z"/>
   <path class="fil1" d="M621.3 700.44l147.86 0.13 0.19 -6.28c-28.77,1.55 -80.85,0.12 -113.86,0.12 -3.19,0 -34.48,-1.03 -37.29,0.9l0.09 0.95c0.43,1.11 -0.09,0.24 0.65,1.3l2.36 2.87z"/>
   <path class="fil1" d="M850.5 386.88c-0.53,-5.77 1.04,-5 6.24,-4.9 3.89,0.08 7.62,0.11 11.54,-0.05l-0.06 5.06 -17.72 -0.12zm-40.17 -4.88l8.77 -0.1 -0.4 4.94 -8.34 -0.01 -0.03 -4.83zm-35.1 -0.12c6.36,0.43 15.43,-1.31 17.56,4.98l-17.49 0.17 -0.06 -5.15zm50.46 0.01l10.35 0.21 0.74 4.7 -11.74 0.12c-0.74,-2.54 -0.53,-2.89 0.65,-5.03zm-26.36 5.08l-2.08 -4.96 7.19 0.02 -0.16 4.83 -4.96 0.11zm71.24 -22.76l0.42 16.74 -182.46 -0.36c1.19,1.25 0.05,0.67 2.23,1.28 3.5,0.97 78.1,0.04 78.56,0.01l-0.06 5.15c-8.05,-0.6 -73.49,-0.72 -78.61,0.3 0.18,2.37 -0.61,-0.1 0.26,1.72l0.79 1.16c0.32,-2.38 -0.62,-1.33 1.44,-2.11 5.88,-1.07 179.48,1.58 182.87,-0.53 1.55,-1.33 1.67,-0.54 1.98,-3.88 0.38,-4 0.95,-17.45 -0.82,-19.59 -0.45,2.84 -0.02,6.55 0.01,9.69 0.06,5.39 0.89,5.46 -2.99,7.07l-0.03 -15.4c-1.81,-0.57 -2.31,-0.7 -3.59,-1.26z"/>
   <path class="fil1" d="M620.06 386.86l16.21 0.14 -0.37 26.33 -22.59 0.4c-2.56,-1.85 -4.3,-1.79 -4.56,-4.72 -0.28,-3.09 1.2,-3.56 3.37,-4.36l-0.03 -8.71 -6.1 0.28c0.23,4.83 -0.69,20.14 1.07,22.89 3.38,2.1 31.75,1.95 34.73,0.14 2.97,-3.06 1.43,-14.03 1.43,-19.34l-0.04 -16.15c-0.49,-2.85 -0.11,-1.85 -1.68,-2.58 -4.3,-0.99 -9.17,-0.52 -13.67,-0.55 -7.41,-0.06 -5.89,0.17 -10.33,2.77 1.52,2.79 1.65,3.63 2.1,2.94 0.08,-0.13 0.33,0.35 0.48,0.54z"/>
   <path class="fil1" d="M570.59 371.49l81.12 -0.45 0.01 71.19 -81.07 0.11 -0.06 -70.85zm-1.16 8.12l-0.05 11.66 -4.9 -1.28 0.27 -9.62 4.68 -0.76zm-5.39 -10l-0.71 71.07c0.01,0.36 0.07,1.94 0.12,2.23 0.52,2.72 -0.19,0.82 0.97,2.21 0.13,-10.42 -1.4,-29.35 0.99,-39.08 0.35,-1.42 0.39,0.04 -0.1,-1.21 -2.51,-6.34 0.25,3.9 -0.96,-1.85l-0.05 -7.09 5.14 0.82c-0.01,8.54 -1.03,40.55 0.66,46.34 6.85,1.27 78.22,1.3 82.05,-0.32 1.29,-4.49 0.95,-64.05 0.36,-72.04 -8.27,-2.72 -30.96,0.81 -40.33,-0.75l0.14 -5.71 -5.99 0.02 -0.1 6.04c-6.9,0.18 -13.75,-0.03 -20.66,0.21 -11.38,0.38 -15.91,-1.92 -16.14,3.46l-5.06 0.82 -0.32 -5.15z"/>
   <path class="fil1" d="M828.06 998.26c1.03,2.58 1.83,5.25 3.76,6.94 0.03,-1.48 0.16,-1.31 0.38,-1.74 5.51,2.23 5.58,5.48 3.03,10.4l-2.08 -0.06 -0.08 3.91 -64.64 -0.04 1.35 2.4c0.92,-0.09 2.59,0.02 3.26,-0.08 4.73,-0.72 1.4,-2.81 9.25,-0.7 11.94,3.22 13.6,-3.65 24.99,-0.37 13.35,3.84 7.43,-0.04 11.86,-0.49 8.76,-0.89 5.79,5.77 21.1,-1.14l-1.67 -13.02c7.89,0.37 27.4,0.84 29.93,-0.31 -7.13,-0.79 -1.41,-0.41 -5.19,-3.52l-3.52 -2.24c-0.14,-0.1 -0.42,-0.16 -0.52,-0.46 -0.1,-0.32 -0.36,-0.32 -0.53,-0.49l-3.8 -0.25 -0.07 -24.11 24.13 0.12 -0.14 17.73c0.67,-0.9 0.45,0.05 0.82,-1.6l0.17 -6.83c-0.01,-3.18 0.3,-6.54 -0.28,-9.61 -3.71,-2.05 -20.95,-1.83 -25.08,-0.31l-0.4 25.29c-2.5,1.49 -3.79,1.27 -6.13,3.48 -2.86,2.7 -1.99,2.43 -6.75,2.42 -2.2,-4.09 -6.18,-6.01 -13.14,-5.31z"/>
   <path class="fil1" d="M543.23 391.37c0.37,2.86 1.97,3.42 4.73,4.82l0.02 11.38c-0.36,-2.2 -1.91,-2.99 -4.82,-2.75l0.07 -13.45zm-18.89 30.38c3.96,0.97 14.38,0.95 18.3,-0.31l0.64 -8.97c2.92,0.23 3.43,-0.19 4.64,-2.42 -2.88,0.76 -4.23,3.21 -4.85,-0.8l4.96 -0.21 -0.08 34.65c-0,2.06 -0.03,4.1 -0.05,6.16 -0,0.25 0.06,3.06 0.07,3.11 0.71,2.56 0.01,1.25 1.67,2.42 -2.03,-9.9 -0.19,-36.81 -0.34,-48.59 -0.22,-16.41 -0.43,-33.4 -0.05,-49.92 -1.08,1.11 -0.63,0.22 -1.12,2.23l-0.14 9.67 -4.84 -0.31 -0.34 -11.66c-1.41,2.28 -0.91,12.69 -0.86,15.53l0 48.57c-4.62,0.14 -14.51,-1.44 -17.61,0.85z"/>
   <path class="fil1" d="M564.04 369.61l0.32 5.15 5.06 -0.82c0.23,-5.38 4.76,-3.07 16.14,-3.46 6.9,-0.23 13.76,-0.03 20.66,-0.21l0.1 -6.04c-7.41,0.57 -16.26,0.15 -23.83,0.15 -7.7,0 -17.74,-2.03 -18.45,5.21z"/>
   <path class="fil1" d="M605.98 396.21l6.1 -0.28 0.03 8.71c-2.17,0.8 -3.64,1.27 -3.37,4.36 0.26,2.93 2.01,2.87 4.56,4.72l-0.12 -26.81 6.88 -0.06c-0.15,-0.19 -0.4,-0.67 -0.48,-0.54 -0.45,0.69 -0.57,-0.14 -2.1,-2.94 4.45,-2.61 2.92,-2.83 10.33,-2.77 4.5,0.04 9.37,-0.44 13.67,0.55 -1.47,-3.19 -20.11,-0.99 -26.73,-1.22 -10.19,-0.35 -9.35,1.65 -8.77,16.26z"/>
   <polygon class="fil1" points="588.99,700.46 606.11,700.53 606.31,694.35 588.73,694.57 "/>
   <path class="fil1" d="M775.39 700.57l17.3 -0.08c0.59,-8.17 -11.15,-5.86 -17.43,-6.2l0.13 6.28z"/>
   <path class="fil1" d="M868.22 387l0.06 -5.06c-3.92,0.16 -7.65,0.12 -11.54,0.05 -5.2,-0.1 -6.77,-0.87 -6.24,4.9l17.72 0.12z"/>
   <path class="fil1" d="M775.3 387.03l17.49 -0.17c-2.12,-6.28 -11.19,-4.54 -17.56,-4.98l0.06 5.15z"/>
   <path class="fil1" d="M563.36 700.54l10.78 0.05c0.71,-2.46 1.22,-2.99 0.11,-5.65 -1.79,-0.71 -6.08,-0.86 -8.74,-0.57 -4.22,0.45 -2.99,3 -2.15,6.17z"/>
   <path class="fil1" d="M825.38 700.54l10.77 0.05c0.71,-2.47 1.22,-2.98 0.11,-5.65 -2.33,-0.94 -8.31,-1.01 -11.17,0l0.29 5.6z"/>
   <path class="fil1" d="M797.63 1029.21c1.29,1.05 0.72,0.87 2.98,1.52 0.24,0.07 1.37,-0.03 1.63,-0.03 -0.99,2.59 -0.41,3.79 0.77,5.57 2.15,-0.42 3.1,-0.53 4.91,-1.44 2.45,-1.23 2.28,-1.43 3.34,-3.12 -1.93,-1.46 0.54,-0.66 -1.97,-2.82 -0.71,-0.61 -1.3,-0.34 -2.46,-1.27 -2.93,1.29 -5.24,2.02 -9.21,1.58z"/>
   <path class="fil1" d="M671.62 877.24c2.72,0.06 5.37,0.68 7.62,0.68 4.49,-0 3.13,-0.2 3.13,-5.49l-8.93 -0.03c-0.45,-0.19 -0.7,-1.7 -1.62,1.34 -0.32,1.06 -0.2,2.38 -0.2,3.5z"/>
   <path class="fil1" d="M825.69 381.89c-1.18,2.15 -1.38,2.49 -0.65,5.03l11.74 -0.12 -0.74 -4.7 -10.35 -0.21z"/>
   <path class="fil1" d="M549.76 700.3l7.08 0.23 0.04 -6.14 -8.59 -0.2c0.02,-0.06 -0.03,3.08 -0.03,3.08 0.62,4.2 -0.55,1.27 1.5,3.03z"/>
   <path class="fil1" d="M810.49 700.65l8.35 -0.12 0.04 -6.13 -7.29 0.2c-0.21,0.03 -0.48,0.12 -0.64,0.16 -0.16,0.03 -0.42,0.1 -0.62,0.18l0.17 5.71z"/>
   <polygon class="fil1" points="564.75,380.37 564.48,389.99 569.38,391.27 569.43,379.61 "/>
   <path class="fil1" d="M543.16 404.82c2.91,-0.23 4.46,0.55 4.82,2.75l-0.02 -11.38c-2.76,-1.41 -4.37,-1.96 -4.73,-4.82l-0.07 13.45z"/>
   <polygon class="fil1" points="510.92,708.28 513.22,707.89 513.22,686.64 510.91,686.25 "/>
   <path class="fil1" d="M543.19 716.76c2.88,-0.24 4.43,0.55 4.73,2.75l0.06 -11.37c-2.77,-1.41 -4.38,-1.96 -4.67,-4.83l-0.11 13.45z"/>
   <path class="fil1" d="M523.04 997.26c-1.07,2.65 4.67,4.04 7.15,5.06 4.18,1.71 6.97,1.16 11.97,0.95l-5.93 0.09 0.08 -5.04 6.15 -0.12c-4.48,0.82 -15.85,1.08 -19.43,-0.93z"/>
   <path class="fil1" d="M868.04 997.42l0.46 6.54c1.42,0.24 2.91,0.48 4.46,0.29l3.25 -1.33c-2.68,-0.18 -1.28,0.99 -2.03,-1.41l0.12 -5.07 -6.26 0.98z"/>
   <polygon class="fil1" points="810.36,386.84 818.71,386.85 819.11,381.91 810.34,382 "/>
   <path class="fil1" d="M768.47 994.31c2.63,2.36 4.22,1.74 7.17,0.66 0.94,-5.75 -0.7,-3.5 -1.49,-7.33 -1.32,0.87 -3.27,1.46 -5.68,6.66z"/>
   <path class="fil1" d="M769.44 1026.24c0.21,1.47 0.28,2.76 0.82,4.19 1.26,3.34 0.6,1.38 1.7,2.27 0.38,-1.54 0.3,-1.56 0.87,-2.77 6.18,0.26 5.63,5.71 -0.19,5 0.44,2.39 -0.42,-0.11 0.63,2.36 0.41,0.95 0.8,1.04 1.16,1.49 0.35,-2.91 -0.04,-1.65 2,-3.11 0.1,-0.08 1.39,-0.96 1.41,-0.97 1.58,-1.04 -0.51,0.03 1.76,-1.02 -1.6,-3.33 -2.67,-4.97 -2.75,-9.39 -0.21,0.11 -0.42,0.36 -0.49,0.53 -0.06,0.16 -0.31,0.38 -0.36,0.58l0.6 3.26 -4.65 0.43 -2.52 -2.82z"/>
   <path class="fil1" d="M588.65 1034.19c0.72,0.82 0.01,0.72 1.81,1.56 0.31,0.15 2.08,0.61 2.49,0.69 2.38,0.48 3.62,0.52 5.75,-0.16 -1.35,-1.98 -1.42,-3.64 -1.34,-6.61l-2.68 -0.03c0.74,1.49 1.05,1.95 0.91,4.12 -4.55,3.65 -8.02,-3.62 -1.32,-3.78l-4.09 -2.17 0.94 1.69c-3.22,2.57 -0.76,2.21 -2.47,4.67z"/>
   <path class="fil1" d="M671.62 877.24c0,-1.12 -0.12,-2.44 0.2,-3.5 0.93,-3.05 1.17,-1.53 1.62,-1.34l-10.58 -0.15c-1.95,3.18 -0.55,5.34 3.38,5.16 3.46,-0.17 1.87,0.1 2.65,-1.37 -0.5,-0.15 -1.9,-0.26 -1.93,-0.27 -2.2,-0.7 -1.16,-0.1 -2.5,-1.32l6.26 0.13c0.11,3.91 -0.2,2.46 0.89,2.66z"/>
   <path class="fil1" d="M831.83 1005.2l1.33 8.6 2.08 0.06c2.54,-4.92 2.47,-8.17 -3.03,-10.4 -0.22,0.43 -0.35,0.26 -0.38,1.74z"/>
   <polygon class="fil1" points="799.19,700.59 804.29,700.52 804.44,694.48 797.84,694.45 "/>
   <path class="fil1" d="M868.5 1003.95l-0.46 -6.54 -9.3 -0.17c0.17,0.17 0.43,0.17 0.53,0.49 0.1,0.31 0.38,0.36 0.52,0.46l3.52 2.24c3.77,3.12 -1.94,2.73 5.19,3.52z"/>
   <path class="fil1" d="M854.64 702.17l-0.01 -9.83 -2.65 0.14c-1.98,4.27 -2.15,5.22 -0.07,9.53l2.72 0.16z"/>
   <path class="fil1" d="M697.72 872.39c-1.69,1.66 -1.63,2.23 -2.66,5.08l7.81 -0.17 -0.03 -4.88 -5.12 -0.03z"/>
   <path class="fil1" d="M821.49 1035.31l1.35 0c-0.22,3.77 -0.72,1.28 -1.15,3.5l3.02 -0.09c-0.19,-2.8 -1.08,-0.48 0.7,-4.8 1.12,-2.72 1.13,-2.9 2.61,-4.98l-2.92 -0.21 0.5 -2.57c-0.91,0.97 -0.27,-0.28 -1.39,2.01 -0.22,0.45 -0.64,1.6 -0.89,2.24 -0.79,1.98 -1.21,3.17 -1.82,4.9z"/>
   <path class="fil1" d="M656.26 872.42c-1.82,1.82 -1.51,2.01 -2.66,5.07l7.63 -0.05 -0.71 -5.12 -4.27 0.09z"/>
   <path class="fil1" d="M617.12 1035.04l-0.05 1.77 6.18 0.04 0.3 -4.27c-1.13,-0.9 0.06,-0.31 -1.98,-1.2 -2.68,-1.18 -0.54,-0.19 -1.9,-0.53l-2.55 4.2z"/>
   <polygon class="fil1" points="799.33,386.97 804.29,386.86 804.44,382.03 797.25,382.01 "/>
   <path class="fil1" d="M599.59 1036.4l3.83 -1.91c-2.09,-0.2 -2.43,0.59 -2.94,-1.65 -0.23,-1.02 0.38,-2.03 0.92,-2.41 2.54,-1.77 3.94,0.3 3.94,2.68 1.33,-0.66 2.07,-1.22 3.62,-1.96l0.56 -2.38c-7.11,0.91 -10.98,-3.83 -9.92,7.63z"/>
   <path class="fil1" d="M795.4 1034.94c2.19,2.3 5.24,2.43 7.85,1l-2.54 -4.55 -5.75 -0.11c2.68,2.3 1.69,0.84 4.15,1.74 -1.27,2.52 0.16,1.28 -3.71,1.93z"/>
   <path class="fil1" d="M771.96 1032.7l0.68 2.23c5.82,0.71 6.37,-4.74 0.19,-5 -0.57,1.21 -0.49,1.23 -0.87,2.77z"/>
   <path class="fil1" d="M747.94 876.19c-2.95,0 -4.69,-0.39 -6.3,0.85 2.77,0.6 9.63,0.7 11.34,-0.25l-3.68 -1.34 0.11 -3.05 -3.53 -0.03c1.94,1.32 1.67,0.97 2.06,3.84z"/>
   <path class="fil1" d="M594.67 1029.65l-0.4 0.34c-6.7,0.16 -3.23,7.43 1.32,3.78 0.14,-2.17 -0.18,-2.64 -0.91,-4.12z"/>
   <path class="fil1" d="M510.95 718.3c3.5,-0.43 4.37,0.93 3.57,3.95 -1.83,1.46 -0.79,1.27 -3.73,0.61l-0.03 1.81c5.44,-0.52 6.26,-1.73 5.1,-7.06l-5.08 -1.1 0.17 1.79z"/>
   <path class="fil1" d="M645.9 877.44c1.2,-3.83 0.24,-4.35 -3.74,-4.27 -2,4.02 -0.79,4.17 3.74,4.27z"/>
   <path class="fil1" d="M510.83 684.13l2.71 -1.17 0.58 -4.31c-2.02,-1.72 -1.13,-1.23 -3.24,-2.21l-0.04 7.69z"/>
   <path class="fil1" d="M603.42 1034.49l1.91 -1.38c0,-2.39 -1.4,-4.46 -3.94,-2.68 -0.54,0.38 -1.15,1.39 -0.92,2.41 0.51,2.24 0.85,1.45 2.94,1.65z"/>
   <path class="fil1" d="M722.72 873.59c-2.28,3.63 -0.14,3.89 3.77,3.74 1.18,-3.47 -0.32,-4.92 -3.77,-3.74z"/>
   <path class="fil1" d="M510.79 722.87c2.94,0.65 1.91,0.85 3.73,-0.61 0.8,-3.03 -0.08,-4.38 -3.57,-3.95l-0.16 4.57z"/>
   <path class="fil1" d="M732.23 876.94l4.09 0.32c1.03,-2.74 0.65,-2.13 -0.93,-4.02l-2.78 0.1c-1.3,2.16 -1.39,1.41 -0.38,3.6z"/>
   <path class="fil1" d="M688.44 872.43c-1.5,2.15 -1.04,1.07 -1.03,4.61l4.68 0.39c-0.85,-2.07 -1.16,-4.82 -3.65,-5z"/>
   <path class="fil1" d="M704.41 872.29l-0.06 5.17 3.33 -0.02c0.05,-3.42 0.45,-2.8 -0.92,-5.01l-2.34 -0.14z"/>
   <path class="fil1" d="M582.63 1028.4c1.55,3.69 1.58,4.05 5.22,5.69l-0.58 -4.15c-2.08,-1.75 -1.46,-1.09 -4.64,-1.53z"/>
   <polygon class="fil1" points="769.15,1006.29 773.29,998.49 769.33,998.51 "/>
   <path class="fil1" d="M513.08 995.84c1.56,-4.28 1.84,-5.54 -2.2,-7.52 0.1,1.52 0.14,3.04 0.49,4.53 0.15,0.61 0.25,1.04 0.57,1.7 1.03,2.07 -0.44,-0.14 1.13,1.3z"/>
   <path class="fil1" d="M684.05 872.43c-1.48,2.19 -1.04,1.61 -1,5.07l3.03 -0.09c0.03,-2.78 0.83,-4.53 -2.03,-4.98z"/>
   <path class="fil1" d="M709.03 877.47l3.56 0.01c-0.01,-2.94 0.4,-2.2 -1.01,-4.35 -3.01,0.62 -2.52,0.7 -2.55,4.34z"/>
   <path class="fil1" d="M713.93 877.42l3.55 -0.18c-0.13,-5.57 -0.25,-3.51 -2.07,-4.21 -1.88,1.63 -1.46,0.78 -1.48,4.39z"/>
   <path class="fil1" d="M720.03 877.48c1.09,-2.11 -0.49,-3.85 2.44,-5.08l-4.91 -0.04c3.17,2.98 -0.77,3.38 2.47,5.12z"/>
  </g>
 </g>
</svg>
