<?xml version="1.0" encoding="UTF-8"?>
<!DOCTYPE svg PUBLIC "-//W3C//DTD SVG 1.1//EN" "http://www.w3.org/Graphics/SVG/1.1/DTD/svg11.dtd">
<!-- Creator: CorelDRAW 2020 (64-Bit) -->
<svg xmlns="http://www.w3.org/2000/svg" xml:space="preserve" width="122.767mm" height="122.767mm" version="1.1" style="shape-rendering:geometricPrecision; text-rendering:geometricPrecision; image-rendering:optimizeQuality; fill-rule:evenodd; clip-rule:evenodd"
viewBox="0 0 943.35 943.35"
 xmlns:xlink="http://www.w3.org/1999/xlink"
 xmlns:xodm="http://www.corel.com/coreldraw/odm/2003">
 <defs>
  <style type="text/css">
   <![CDATA[
    .fil0 {fill:#E6E7E8}
    .fil1 {fill:#ED3237}
   ]]>
  </style>
 </defs>
 <g id="Layer_x0020_1">
  <metadata id="CorelCorpID_0Corel-Layer"/>
  <rect class="fil0" x="-0" y="-0" width="943.35" height="943.35"/>
  <g id="_2882991001360">
   <path class="fil1" d="M461.49 559.92c29.33,0 24.41,-1.92 26.26,11.07 0.82,5.76 2.19,11.31 2.59,16.08l-37.33 0c0.4,-4.8 1.53,-8.68 2.38,-14.59 1.01,-6.96 -0.39,-12.56 6.1,-12.56zm-118.78 -28.85l0 -11.88 257.93 0c0,8.99 1.96,27.15 -15.27,27.15l-227.39 0c-8.39,0 -15.27,-6.89 -15.27,-15.27zm0 -159.51c0,-8.39 6.89,-15.27 15.27,-15.27l227.39 0c8.39,0 15.27,6.88 15.27,15.27l0 134.06 -257.93 0 0 -134.06zm-13.57 -5.09l0 169.69c0,8.64 8.1,16.99 13.53,20.41 10.38,6.54 84.81,3.35 100.17,3.35 -0.31,3.74 -2.86,24.43 -5.91,26.33 -6.41,3.98 -26.33,-4.83 -26.33,7.61 0,3.97 2.82,6.79 6.79,6.79l108.6 0c3.97,0 6.79,-2.82 6.79,-6.79 0,-11.96 -17.5,-4.23 -25.15,-7.09 -5.48,-2.05 -6.58,-20.74 -7.09,-26.85 13.81,0 89.9,2.45 99.11,-2.71 6.18,-3.47 14.59,-12.35 14.59,-21.05l0 -169.69c0,-10.6 -13.16,-23.76 -23.76,-23.76l-237.57 0c-10.6,0 -23.76,13.16 -23.76,23.76z"/>
   <path class="fil1" d="M531.07 403.8l3.39 0c5.49,0 13.93,15.83 16.97,20.36l-37.33 0c3.04,-4.53 11.48,-20.36 16.97,-20.36zm-32.24 22.06l0 52.61c0,9.04 13.58,9.04 13.58,0l0 -40.73 13.58 0c0,23.75 -4.23,47.51 6.79,47.51 11.02,0 6.79,-23.77 6.79,-47.51l13.57 0c0,23.75 -4.23,47.51 6.79,47.51 3.97,0 6.79,-2.82 6.79,-6.79 0,-57.6 5.74,-48.24 -14.59,-78.74 -20.43,-30.64 -18.19,-30.75 -38.01,-1.02 -3.57,5.36 -15.27,20.29 -15.27,27.15z"/>
   <path class="fil1" d="M376.65 397.01c0,3.97 2.82,6.79 6.79,6.79l81.45 0c9.04,0 9.04,-13.58 0,-13.58l-81.45 0c-3.97,0 -6.79,2.82 -6.79,6.79z"/>
   <path class="fil1" d="M376.65 430.95c0,3.97 2.82,6.79 6.79,6.79l81.45 0c9.04,0 9.04,-13.58 0,-13.58l-81.45 0c-3.97,0 -6.79,2.82 -6.79,6.79z"/>
   <path class="fil1" d="M376.65 464.89c0,3.97 2.82,6.79 6.79,6.79l47.51 0c9.04,0 9.04,-13.58 0,-13.58l-47.51 0c-3.97,0 -6.79,2.82 -6.79,6.79z"/>
   <path class="fil1" d="M464.89 532.76c0,9.04 13.58,9.04 13.58,0 0,-9.04 -13.58,-9.04 -13.58,0z"/>
  </g>
 </g>
</svg>
