<?xml version="1.0" encoding="UTF-8"?>
<!DOCTYPE svg PUBLIC "-//W3C//DTD SVG 1.1//EN" "http://www.w3.org/Graphics/SVG/1.1/DTD/svg11.dtd">
<!-- Creator: CorelDRAW 2020 (64-Bit) -->
<svg xmlns="http://www.w3.org/2000/svg" xml:space="preserve" width="122.767mm" height="122.767mm" version="1.1" style="shape-rendering:geometricPrecision; text-rendering:geometricPrecision; image-rendering:optimizeQuality; fill-rule:evenodd; clip-rule:evenodd"
viewBox="0 0 24379.99 24379.99"
 xmlns:xlink="http://www.w3.org/1999/xlink"
 xmlns:xodm="http://www.corel.com/coreldraw/odm/2003">
 <defs>
  <style type="text/css">
   <![CDATA[
    .fil0 {fill:#E6E7E8}
    .fil1 {fill:#ED3237}
   ]]>
  </style>
 </defs>
 <g id="Layer_x0020_1">
  <metadata id="CorelCorpID_0Corel-Layer"/>
  <rect class="fil0" x="-0.01" y="-0.01" width="24379.99" height="24379.99"/>
  <g id="_2883044866720">
   <path class="fil1" d="M14461.95 15048.5c-13.03,80.31 -159.96,19.26 -119.77,-73.54 34.81,-80.39 147.53,-6.26 158.43,50.64 -66.96,11.52 -45.12,-83.68 -131.31,-38.94l5.98 55.17c63.47,26.09 49.07,-13.5 86.66,6.67zm-1766.98 -112.08l-761.94 506.24 -2.09 -337.96 764.03 -168.28zm1850.44 -5804.21c166.69,-37.51 338.35,-89.64 506.96,-134.86 85.33,-22.9 449.88,-130.06 505.45,-128.01l1.51 5682.97 -1010.73 272.54c20.41,29.25 56.12,52.78 65.14,89.19 -70.48,-7.88 -35.33,-57.97 -113.73,-58.9 -9.08,36.76 -2.07,44.94 17.46,63.75 29.37,28.32 27.48,14.16 38.39,57.35 -45.36,-7.86 -104.83,-61.48 -86.31,-124l-24.13 -0.99c-125.25,29.73 -1871.37,504.08 -1908.05,502.88 13.86,-2.48 229.27,-149.72 257.11,-169.28 83.37,-58.56 174.62,-113.06 258.6,-168.76l261.36 -175.69c169.53,-112.92 174.62,-103.37 173.45,-258.38 -8.64,-1139.26 -0.14,-2307.65 -0.14,-3450.25 0,-570.3 -9.39,-1147.82 0.87,-1717.03 150.83,-39.02 753.7,-211.48 850.77,-221.52 -13.6,-92.4 66.07,-88.65 90.95,-77.27 27.19,12.43 28.34,34.93 28.85,36.24l61.58 -13.42c-22.86,-47.92 -75.78,-39.8 -51.81,-125.71 25.14,-23.93 25.16,-12.65 43.03,-31.5 12.13,-12.79 12.99,-23.16 31.54,-41.56 42.18,-21.23 124.3,38.67 126.2,93.22 -36.94,-8.34 -34.1,-16.68 -57.99,-40.49 -19.62,-19.56 -25.66,-24.55 -54.15,-23.35 -21.41,66.13 62.28,54.91 49.51,115.96 -43.71,-8.5 -52.94,-72.9 -103.74,-55.72 -7.96,13.9 -15.75,-22.66 -6.32,29.33 5.96,32.93 35.07,18.91 48.38,73.28zm-2517.8 -277.03c29.95,46.51 62.12,185.08 15.97,245.67l19.68 9.02 1163.75 -253.68 -1.27 5686.92c-57.41,30.88 -481.64,114.01 -578.67,134.13 -194.44,40.31 -387.96,88.81 -580.27,128.67 -5.06,72.07 -4.03,109.9 -33.84,172.26 -23.25,48.63 -46.23,92.24 -95.4,99.65 4.91,-82.97 41.74,-62.08 62.5,-256.62l-61.62 12.89c-1.37,367.43 -384.98,375.41 -522.92,203.45 -57.31,-71.43 -9.85,-71.79 -67.06,-72.09l-2525.32 559.54 -2.7 -676.69c-66.94,-14.44 -34.91,-50.04 -94.21,-47.58 -20.2,62.46 40.43,39.92 58.19,115.92 -40.57,-8.24 -119.39,-111.07 -119.65,-33.14l2.46 13.88c8.46,23 4.13,8.2 18.27,21.67 29.97,28.54 27.8,12.81 39,57.19 -46.71,-8.08 -96.22,-66.35 -94.93,-101.7 1.55,-41.92 19.12,-36.36 40.35,-52.8 20.83,-16.15 4.96,-1.05 23.04,-26.07 37.65,-52.13 72.01,-28.83 103.9,2.56l27.05 23.97 0.71 -2766.05 -18.55 9.04c-27.62,12.57 -37.41,18.83 -70.4,14.66 -219.58,-27.76 -148.64,-373.98 87.48,-330.13l-0.62 -1915.54 2633.12 -584.64c-7.92,-10.72 -6.51,-8.24 -16.18,-18.65 -43.89,-47.18 -66.29,-77.43 -82.57,-150.45 -10.29,-46.15 -3.08,-47.52 -25.64,-71.85 -280.37,64 -2665.09,574.24 -2721.11,621.6 -77.65,65.63 -48.24,248.51 -48.24,364.49 0,139.43 0,278.48 0,417.93l0 5005.25c0,94.33 -23.81,310.65 41.94,370.55 74.13,67.52 244.6,-0.62 341.04,-20.24 307.89,-62.63 2658.46,-603.71 2726.83,-600.43 -10.45,143.64 -3.85,336.03 -1.87,483.54 2.82,208.46 125.27,175.97 284.97,133.61l2279.29 -607.18c-16.26,-30.7 -32.33,-87.44 17.73,-111.57 59.68,-28.76 61.64,52.17 39,77.35 -26.47,-11.02 -11.88,-11.64 -29.15,-41.33 -10.29,15.75 -10.37,-20.06 -11.99,33.03 -0.7,22.78 3.83,15.91 10.53,26 48.32,4.67 468.05,-116.53 556.01,-140.44l821.7 -217.73c104.66,-26.85 179.5,-45.44 182.8,-162.15 6.43,-226.11 -0.18,-463.21 -0.18,-690.57 0,-1721.58 -9.49,-3469.29 0.06,-5189.94 0.64,-113.67 -19.58,-211.16 -149.2,-196.44 -69.61,7.92 -202.2,52.35 -279.1,72.86l-1907.04 505.07c8.96,-86.37 2.46,-204.01 2.46,-293.99 0.02,-84.9 14.52,-208.34 -40.29,-254.85 -84.88,-72.07 -363,27.72 -477.17,52.13 -236.8,50.6 -732.79,152.5 -942.66,210.07z"/>
   <path class="fil1" d="M12778.72 10467.61c-679.11,149.06 -1349.05,319.21 -2027.94,467.02 -513.61,111.82 -1007.36,236.98 -1516.16,349.63 -90.66,20.08 -164.37,46.55 -152.22,156.79 11.02,99.95 97.76,125.07 195.59,100.96 331.36,-81.64 676.95,-156.73 1010.1,-233l2021.55 -466.6c168.76,-40.73 335.65,-79.14 505.23,-116.21 90.89,-19.88 162.15,-51.45 153.93,-157.1 -7.59,-97.57 -91.01,-123.22 -190.07,-101.48z"/>
   <path class="fil1" d="M12166.77 11393.69c1.91,-2.62 6,-9.57 6.65,-11.8 7.33,-25.46 -5.56,-31.48 6.04,-57.23 11.99,-26.59 40.33,-31.95 70.4,-28.74 12.19,28.32 2.46,16.38 8.36,39.66 7.59,29.87 -1.35,12.55 14.72,32.03 75.13,-8.76 363.42,-72.27 405.68,-118.2 58.84,-63.99 28.91,-151.9 -17.28,-188.8 -62.2,-49.71 -143.62,-15.41 -218.8,1.39 -384.41,85.95 -2987.1,679.51 -3036.71,705.21 -49.91,25.84 -94.61,111.77 -45.81,183.75 49.91,73.64 110.97,65.43 204.51,43.81 293.31,-67.76 581.37,-135.95 868.48,-201.41 415.59,-94.75 894.02,-215.01 1302.7,-300.3l431.07 -99.37z"/>
   <path class="fil1" d="M10892.59 12395.25c26.51,-93.16 -44.11,-166.75 -129.04,-164.75 -51.45,1.21 -660.23,149.34 -744.65,168.26l-742.14 171.86c-90.06,20.28 -168.82,30.68 -190.49,111.25 -25.3,93.99 40.23,169.1 130.11,167.33 51.83,-0.99 1095.79,-252.15 1240.34,-283.68 81.78,-17.83 162.19,-38.59 244.66,-56.48 91.07,-19.76 167.55,-30.68 191.2,-113.79z"/>
   <path class="fil1" d="M9391.48 14280.56c-1.75,33.66 5,20.89 -16.07,41.54 -93,91.13 -208.78,-137.84 -50.96,-120.15 8.16,16.58 10.11,13.17 10.7,40.09l-10.7 42.34c-36.94,-23.97 -7.33,-28.26 -40.75,-48.18 -4.23,28.72 -11.08,66.61 31.85,71.77 46.55,5.6 20.53,-23.87 75.92,-27.43zm1501.11 -330.29c26.71,-93.81 -45.68,-167.19 -128.92,-164.93 -52.27,1.43 -1295.95,296.47 -1487.05,340 -89.46,20.38 -168.44,31.04 -190.35,111.59 -25.42,93.48 50.28,172.14 129.88,167.03 74.19,-4.75 1264.41,-292.72 1485.2,-340.08 93.5,-20.06 166.69,-27.41 191.24,-113.61z"/>
   <path class="fil1" d="M10629.36 13503.19c30.72,-76.65 -22.58,-155.75 -84.98,-171.92 -52.92,-13.72 -165.5,20.55 -220.43,33.22l-853.01 197.36c-139.45,34.3 -346.69,52.71 -381.23,144.55 -31.32,83.31 19.62,157.72 81.84,174.58 52.94,14.34 167.29,-20.16 224.44,-33.86l1065.92 -245.43c92.14,-20.75 136.81,-22 167.45,-98.5z"/>
   <path class="fil1" d="M12964.2 12958.94c28.78,-85.95 -27.86,-152.56 -93.48,-167.23 -61.44,-13.74 -569.15,116.83 -651.45,135.44l-640.11 148.03c-77.63,19.34 -137.38,24.27 -160.24,103.25 -23.23,80.29 30.72,153.87 95.92,166.67 53.08,10.45 161.67,-25.08 217.67,-38.05l1066.32 -245.18c81.2,-16.94 141.51,-31.62 165.36,-102.93z"/>
   <path class="fil1" d="M12962.77 13998.86c13.76,-35.47 7.07,-77.09 -10.35,-109.46 -56.99,-105.97 -184.17,-51.71 -293.57,-25.78 -140.54,33.3 -286.24,63.97 -426.86,96.95 -145.17,34.04 -289.58,67.62 -433.93,100.6 -144.89,33.1 -342.64,51.65 -377.2,149.06 -31.75,89.52 25.26,154.18 88.77,169.3 58.19,13.86 153.69,-19.64 213.32,-32.47l1074 -247.76c79.59,-18.41 138.04,-28.82 165.82,-100.45z"/>
   <path class="fil1" d="M12963.05 12443.84c13.84,-35.15 6.65,-77.25 -10.68,-109.38 -56.99,-105.51 -178.67,-51.47 -293.81,-26.89l-1073.88 247.76c-77.55,17.87 -142.51,30.15 -164.11,99.31 -28.22,90.24 22.68,153.99 88.99,170.15 57.43,14 155.3,-20.38 213.58,-33.64l1073.61 -247.18c80.51,-19.62 137.64,-27.31 166.32,-100.13z"/>
   <path class="fil1" d="M10364.57 14611.15c28.99,-62.32 10.49,-128.61 -40.43,-164.35 -54.37,-38.17 -121.56,-16.94 -184.47,-2.52 -121.95,27.98 -242.36,54.41 -363.26,83.37 -122.35,29.29 -239.16,54.25 -362.92,84.5 -108.29,26.47 -287.04,34.42 -322.47,125.69 -27.44,70.64 1.19,128.57 43.77,160.36 58.17,43.45 113.95,19.34 179.68,4.59l726.18 -167.13c126.24,-28.12 286.11,-43.17 323.92,-124.49z"/>
   <path class="fil1" d="M10364.59 13056.13c31.22,-67.68 3.69,-136.65 -39.52,-165.01 -55.96,-36.7 -123.28,-15.95 -185.28,-1.69l-726.26 167.91c-104.97,24.61 -281.44,29.51 -321.71,126.04 -28.5,68.31 -0.14,127.55 42.93,159.82 56.92,42.64 113.55,20.73 179.92,4.65 122.09,-29.61 244.06,-53.54 363.46,-83.23 118.74,-29.51 243.63,-57.91 362.54,-84.18 136.13,-30.07 286.19,-42.5 323.92,-124.32z"/>
   <path class="fil1" d="M12961.46 11928.72c24.9,-69.94 -11.12,-129.36 -50.88,-155.97 -55.72,-37.29 -118.04,-15.17 -183.52,0.64l-726.1 167.05c-60.71,13.15 -120.11,29.17 -182.13,42.66 -69.64,15.17 -111.9,26.77 -136.89,87.93 -28.54,69.86 11.1,138.5 49.67,161.95 56.1,34.1 124.89,10.72 185.96,-4.43l725.94 -167.57c118.26,-28.1 283.44,-35.27 317.94,-132.26z"/>
   <path class="fil1" d="M12961.46 13483.77c25,-70.08 -11.66,-129.26 -50.84,-156.01 -55.53,-37.91 -118.28,-14.46 -183.75,0.28 -120.42,27.07 -243.95,56.74 -363.38,84.2l-544.59 125.88c-222.58,50.02 -145.6,212.83 -85.51,248.59 60.43,35.98 121.81,12.37 184.31,-2.58l725.88 -167.83c116.97,-27.09 283.64,-36.6 317.88,-132.54z"/>
   <path class="fil1" d="M11627.8 8947.16c-32.77,81.48 -22.14,176.88 82.41,149.83 3.04,-46.83 -17.24,-38.21 3.38,-86.54 115.66,-39.16 84.92,152.52 -44.9,144.29 -76.28,-4.83 -124.22,-51.22 -136.15,-124.32 -8.74,-53.52 15.25,-59.56 -25.1,-60.33l-62.18 10.56c16.8,74.03 12.69,101.84 53.96,160.86 28.2,40.35 67.48,80.71 127.18,65.59l202.1 -44.44c12.11,-58.86 39.36,-82.57 20.71,-157 -9.97,-39.74 -36.3,-63.75 -74.65,-86.43 -41.31,-5.36 -110.95,7.17 -146.76,27.92z"/>
   <path class="fil1" d="M11823.31 14863.58c34.67,-3 14.24,-4.81 31.48,9.99 -3.1,105.49 -63.39,170.11 -159.88,181.43 -110.87,13.01 -176.37,-40.77 -218.51,-114.78l-127.95 25.24c57.21,0.3 9.75,0.66 67.06,72.09 137.94,171.96 521.55,163.97 522.92,-203.45l-115.12 29.49z"/>
   <path class="fil1" d="M8824.61 12056.14l-1.37 -121.06c-70.78,-0.44 -27.86,35.45 -46.07,86.94 -75.58,22.8 -103.86,-46.13 -89.74,-108.49 15.67,-69.11 72.41,-73.87 135.1,-86.17l0.62 -77.67c-236.12,-43.85 -307.06,302.37 -87.48,330.13 32.99,4.17 42.78,-2.09 70.4,-14.66l18.55 -9.04z"/>
   <path class="fil1" d="M11562.71 14919.14l-86.31 21.07c42.14,74.01 107.63,127.79 218.51,114.78 96.49,-11.32 156.79,-75.94 159.88,-181.43 -17.24,-14.79 3.2,-12.99 -31.48,-9.99l-40.75 4.35c10.41,140.9 -194.3,155.1 -219.86,51.22z"/>
   <path class="fil1" d="M11331.25 9008.57c22.56,24.33 15.35,25.7 25.64,71.85 16.28,73.02 38.68,103.27 82.57,150.45 9.67,10.41 8.26,7.92 16.18,18.65 47.72,-12.77 135.28,-17.85 170.75,-42.4 -59.7,15.11 -98.98,-25.24 -127.18,-65.59 -41.27,-59.02 -37.16,-86.82 -53.96,-160.86 -36.66,12.27 -84.04,19.86 -114.01,27.9z"/>
   <path class="fil1" d="M11507.44 8970.1c40.35,0.77 16.36,6.81 25.1,60.33 11.94,73.1 59.87,119.49 136.15,124.32 129.82,8.22 160.56,-183.46 44.9,-144.29 -20.61,48.34 -0.34,39.72 -3.38,86.54 -104.56,27.05 -115.18,-68.35 -82.41,-149.83l-120.36 22.94z"/>
   <path class="fil1" d="M11774.56 8919.24c38.35,22.68 64.68,46.69 74.65,86.43 18.65,74.43 -8.6,98.14 -20.71,157 20.83,-2.11 36.32,-3.77 56.97,-8.36 6,-1.33 18.03,-4.63 23.61,-6.51l22.14 -9.23c-17.73,-25.66 -6.85,6.24 -3.44,-20.3 22.78,-176.84 3.95,-108.63 -48.4,-231.69 -40.39,10.96 -77.61,10.19 -104.83,32.67z"/>
   <path class="fil1" d="M8823.24 11935.08l-0.71 -107.71c-62.69,12.29 -119.43,17.06 -135.1,86.17 -14.12,62.36 14.16,131.29 89.74,108.49 18.21,-51.49 -24.7,-87.38 46.07,-86.94z"/>
   <path class="fil1" d="M11940.72 8879.27c73.95,35.71 54.23,182.54 37.93,249.13l84.62 -18.53 -19.68 -9.02c46.15,-60.59 13.98,-199.16 -15.97,-245.67 -33.48,5.92 -64.02,8.36 -86.9,24.09z"/>
   <path class="fil1" d="M12000.06 14821.2c-20.75,194.54 -57.59,173.65 -62.5,256.62 49.17,-7.41 72.15,-51.02 95.4,-99.65 29.81,-62.36 28.78,-100.19 33.84,-172.26l-66.75 15.29z"/>
   <path class="fil1" d="M11562.71 14919.14c25.56,103.88 230.26,89.68 219.86,-51.22 -72.94,19 -143.84,33.01 -219.86,51.22z"/>
   <path class="fil1" d="M11879.39 8886.57c52.35,123.06 71.17,54.85 48.4,231.69 -3.42,26.53 -14.3,-5.36 3.44,20.3l47.42 -10.17c16.3,-66.59 36.02,-213.42 -37.93,-249.13l-61.32 7.31z"/>
   <path class="fil1" d="M14520.77 9138.76l24.64 -6.55c-13.31,-54.37 -42.42,-40.35 -48.38,-73.28 -9.43,-51.99 -1.65,-15.43 6.32,-29.33 50.8,-17.18 60.03,47.22 103.74,55.72 12.77,-61.05 -70.92,-49.83 -49.51,-115.96 28.5,-1.19 34.53,3.79 54.15,23.35 23.89,23.81 21.05,32.15 57.99,40.49 -1.91,-54.55 -84.02,-114.45 -126.2,-93.22 -18.55,18.41 -19.4,28.78 -31.54,41.56 -17.87,18.85 -17.89,7.57 -43.03,31.5 -23.97,85.91 28.95,77.79 51.81,125.71z"/>
   <path class="fil1" d="M8820.42 14848.31l3.48 -26.11 -27.05 -23.97c-31.89,-31.4 -66.25,-54.69 -103.9,-2.56 -18.07,25.02 -2.2,9.93 -23.04,26.07 -21.23,16.44 -38.8,10.88 -40.35,52.8 -1.29,35.35 48.22,93.61 94.93,101.7 -11.2,-44.38 -9.04,-28.66 -39,-57.19 -14.14,-13.46 -9.81,1.33 -18.27,-21.67l-2.46 -13.88c0.26,-77.93 79.08,24.9 119.65,33.14 -17.75,-76 -78.38,-53.46 -58.19,-115.92 59.3,-2.46 27.27,33.14 94.21,47.58z"/>
   <path class="fil1" d="M14461.95 15048.5c-37.59,-20.18 -23.2,19.42 -86.66,-6.67l-5.98 -55.17c86.19,-44.74 64.34,50.46 131.31,38.94 -10.9,-56.9 -123.62,-131.03 -158.43,-50.64 -40.19,92.8 106.74,153.85 119.77,73.54z"/>
   <path class="fil1" d="M9391.48 14280.56c-55.39,3.55 -29.37,33.03 -75.92,27.43 -42.93,-5.16 -36.08,-43.05 -31.85,-71.77 33.42,19.92 3.81,24.21 40.75,48.18l10.7 -42.34c-0.6,-26.93 -2.54,-23.51 -10.7,-40.09 -157.82,-17.69 -42.04,211.28 50.96,120.15 21.07,-20.65 14.32,-7.88 16.07,-41.54z"/>
   <path class="fil1" d="M14445.41 14851.24l24.13 0.99c-18.53,62.52 40.95,116.13 86.31,124 -10.9,-43.19 -9.02,-29.03 -38.39,-57.35 -19.52,-18.81 -26.53,-26.99 -17.46,-63.75 78.4,0.93 43.25,51.02 113.73,58.9 -9.02,-36.4 -44.72,-59.93 -65.14,-89.19l-103.19 26.39z"/>
   <path class="fil1" d="M12166.77 11393.69l106.17 -26.07c-16.07,-19.48 -7.13,-2.16 -14.72,-32.03 -5.9,-23.27 3.83,-11.34 -8.36,-39.66 -30.07,-3.22 -58.4,2.14 -70.4,28.74 -11.6,25.76 1.29,31.77 -6.04,57.23 -0.66,2.22 -4.75,9.17 -6.65,11.8z"/>
   <path class="fil1" d="M14339.38 9193.21c23.77,-13.68 79.89,-18.41 119.81,-41.03 -0.52,-1.31 -1.67,-23.81 -28.85,-36.24 -24.88,-11.38 -104.56,-15.13 -90.95,77.27z"/>
   <path class="fil1" d="M14234.11 15177.68l26.11 -16.52c-6.69,-10.09 -11.22,-3.22 -10.53,-26 1.63,-53.08 1.71,-17.28 11.99,-33.03 17.28,29.69 2.68,30.3 29.15,41.33 22.64,-25.18 20.67,-106.11 -39,-77.35 -50.06,24.13 -34,80.87 -17.73,111.57z"/>
  </g>
 </g>
</svg>
