<?xml version="1.0" encoding="UTF-8"?>
<!DOCTYPE svg PUBLIC "-//W3C//DTD SVG 1.1//EN" "http://www.w3.org/Graphics/SVG/1.1/DTD/svg11.dtd">
<!-- Creator: CorelDRAW 2020 (64-Bit) -->
<svg xmlns="http://www.w3.org/2000/svg" xml:space="preserve" width="122.767mm" height="122.767mm" version="1.1" style="shape-rendering:geometricPrecision; text-rendering:geometricPrecision; image-rendering:optimizeQuality; fill-rule:evenodd; clip-rule:evenodd"
viewBox="0 0 2644.99 2644.99"
 xmlns:xlink="http://www.w3.org/1999/xlink"
 xmlns:xodm="http://www.corel.com/coreldraw/odm/2003">
 <defs>
  <style type="text/css">
   <![CDATA[
    .fil0 {fill:#E6E7E8}
    .fil1 {fill:#ED3237}
   ]]>
  </style>
 </defs>
 <g id="Layer_x0020_1">
  <metadata id="CorelCorpID_0Corel-Layer"/>
  <rect class="fil0" x="-0" y="-0" width="2644.99" height="2644.99"/>
  <g id="_2883044829808">
   <path class="fil1" d="M1322.5 1037.74l201.26 -0.58 0.17 49.21c0.03,20.34 -0.2,10.37 -14.93,33.45l-40.31 56.47c-6.69,9.41 -13.39,19.14 -20.4,28.49l-50.1 0.18 -44.06 -61.76c-3.59,-5.21 -12.98,-16.7 -15.02,-22.28 21.09,0.27 42.99,3.82 48.85,-9.81 3.1,-7.2 0.65,-15.52 -4.08,-19.54 -8,-6.8 -38.28,-3.98 -50.29,-4.1l-11.03 -0.21 -0.06 -49.53zm-33.57 -0.48l0.09 62.08c0,8.84 -0.24,10.28 4.53,16.75l70 97.82c3.47,5.51 12.92,20.13 18.51,22.83 6.36,3.07 76.03,2.14 80.64,0.56 7.12,-2.43 14.11,-14.72 19.63,-22.84l52.16 -73.06c5.96,-8.35 11.97,-16.97 17.82,-24.71 7.59,-10.04 5.09,-22.35 5.09,-36.76 0,-13.99 0.19,-28.11 -0.05,-42.08 15.89,-3.79 60.95,2.68 73.1,-1.69 10.71,-3.85 10.9,-14.01 10.87,-27.22 -0.02,-12.48 -0.02,-24.96 -0.01,-37.43 0.02,-61.62 12.73,-51.84 -99.91,-51.84 -11.29,0 -84.9,-1.51 -91.7,1.5 -13.75,6.08 -14.1,30.59 6.55,31.99 39.61,2.69 105.9,-1.81 151.43,0.23l0.05 50.24 -369.11 -0.02c0.06,-13.44 0.37,-27.08 -0.03,-39.96 -0.36,-11.59 1.31,-29.35 -2.14,-35.78 -4.29,-7.98 -18.3,-12.24 -26.74,-2.85 -6.91,7.69 -4.62,23.18 -4.62,34.87 0,13.34 0.01,26.67 0.01,40.01 0,11.16 -2.34,26.84 5.92,33.52 9.2,7.43 61.53,3.04 77.92,3.85z"/>
   <path class="fil1" d="M1054.17 1473.28c-0.07,13.02 -1.38,116.25 1.13,123.75 2.08,6.24 7.84,10.05 15.02,10.48 15.52,0.94 34.41,-0.02 50.32,-0.02l402.7 0c64.29,0 67.59,7.13 67.59,-33.25 0,-33.41 0.19,-66.89 -0.02,-100.29 12.72,-2.6 94.17,0.47 117.01,-0.68 21.05,-1.06 21.97,-25.33 7.64,-31.9 -6.47,-2.96 -101.06,-1.5 -116.08,-1.5 -20.16,0 -40.95,-4.63 -41.93,17.09 -1.74,38.32 1.85,78.95 -0.28,117.25l-469.6 -0.1c-1.48,-38.49 1.55,-78.28 -0.08,-116.09 -0.97,-22.46 -20.41,-18.14 -40.53,-18.14 -14.06,0 -110.85,-1.04 -116.56,1.11 -14.75,5.56 -15.31,30.47 5.54,32.22 15.18,1.27 95.97,0.06 118.13,0.06z"/>
   <path class="fil1" d="M1102.47 1724.95l455.88 0.33c4.96,-4.52 7.19,-6.57 15.69,-6.58 2.35,2.22 4.69,4.74 6.59,6.44l6.32 0.05c-3.4,-5.85 -9.97,-8.66 -12.62,-16.1 9.14,-6.18 23.34,-31.22 32.91,0.52l14.91 6.53 -5.88 5.77c-7.85,-1.95 -6.14,-5.52 -15.87,-4.54l-2.84 5.72c7.5,3.8 102.82,2.36 115.73,0.57 8.89,-0.59 14.98,-12.93 10.15,-23.08 -4.14,-8.7 -14.41,-9.07 -27.15,-9.05 -23.21,0.03 -49.55,-1.18 -72.31,0.06 -0.91,1.09 -1.3,1.43 -2.29,2.88 -1.17,1.73 -0.47,0.55 -1.35,2.43l9.96 11.72 -3.31 4.19c-4.14,-0.99 -1.91,0.84 -7.51,-5 -2.04,-2.13 -3.06,-3.07 -5.08,-5.22 -3.6,-3.83 -7.91,-7.08 -9.98,-10.95l-522.79 -0.11c-6.2,8 -27.98,26.57 -31.69,33.35 9.45,-0.69 19.69,1.18 28.53,-1.74 6.16,-2.03 11.55,-3.5 19.15,-0.78 3.85,1.37 -0.85,-0.55 2.91,1.36l1.94 1.23z"/>
   <path class="fil1" d="M1171.19 1372.59c-10.37,3.29 -13.93,14.08 -10.48,22.22 3.54,8.35 11.33,9.73 20.98,13.81l98.55 40.76c9.82,4.32 41.39,19.66 51.28,16.96 8.61,-2.35 14.08,-12.87 9.95,-22.65 -3.22,-7.63 -12.28,-10.07 -21.1,-13.65l-98.52 -40.85c-10.79,-4.43 -40.57,-19.8 -50.66,-16.6z"/>
   <path class="fil1" d="M1316.99 1227.87c-23.24,5.82 -8.65,29.99 -2.85,44.52l49.51 119.58c3.46,8.38 8.91,16.11 21.45,13.19 3.8,-0.89 7.63,-4.38 9.54,-7.28 6.7,-10.17 -2.46,-23.95 -8.02,-38.03l-49.45 -119.58c-3.18,-7.57 -9.65,-15.04 -20.19,-12.4z"/>
   <path class="fil1" d="M1321.98 1506.73l16.22 -16.37c2.3,-19.77 -25.17,-16.74 -30.43,-16.74l-96.8 -0.01c-12.94,0 -37.74,-3.06 -45.88,4.51 -10.23,9.52 -5.26,26.64 8.64,28.68l148.24 -0.06z"/>
   <path class="fil1" d="M1244.74 1300.22c-7.67,2.26 -14.67,9.02 -12.78,19.46 1.46,8.05 41.26,45.73 47.74,51.6 5.73,5.17 10.32,10.82 16.14,16.19l32.84 32.93c4.97,4.68 10.49,12.88 22.5,9.97 7.14,-1.73 13.45,-10.42 11.71,-19.67 -1.6,-8.51 -55.36,-57.6 -64.26,-67.35l-32.92 -32.92c-4.14,-4.45 -10.77,-13.21 -20.97,-10.21z"/>
   <path class="fil1" d="M1417.22 1256.25c-15.25,5.19 -11.41,23.52 -11.41,40.5l0.01 103.26c-0.03,8.59 -0.79,15.79 4.48,21.42 4.38,4.68 11.23,6.95 18.49,4.08 14.6,-5.77 10.17,-24.37 10.4,-38.32l0.02 -103.34c0.01,-8.31 1.47,-15.93 -3.67,-21.95 -4.12,-4.83 -9.73,-8.56 -18.32,-5.64z"/>
   <path class="fil1" d="M1544.69 1344.07l-25.63 25.87c-8.95,8.38 -17.12,17.07 -25.83,25.78 -9.37,9.37 -19.28,23.22 -3.56,32.76 13.66,8.29 22.53,-4.61 32.93,-15l78.23 -77.96c7.41,-7.64 21.12,-18.51 5.8,-32.88 -4.59,1.72 -1.5,-0.43 -5.51,3.56 -1.57,1.56 -1.34,1.73 -2.96,3.51l-19.88 20.1c-18.05,19.41 -18.31,17.87 -33.59,14.26z"/>
   <path class="fil1" d="M1513.64 1311.63c-5.69,-8.79 -10.5,-6.2 -5.72,-22.75 2.85,-9.87 -6.79,-14.32 -4.07,-25.48 1.45,-5.96 16.49,-19.17 22.64,-25.42 8.52,-8.65 6.44,-4.55 5.88,-8.13 -5.13,-3.97 -13.19,-2.79 -18.15,1.04 -5.81,4.49 -6.41,10.2 -9.5,17.49 -5.42,12.79 -10.28,24.26 -15.61,37.31 -10.19,24.98 -21.17,49.82 -30.99,74.87 -4.85,12.36 -15.35,28.09 -5.65,39.28 3.88,4.48 11.69,6.64 19.07,3.82 7.04,-2.69 8.1,-7.97 11.34,-15.69 5.06,-12.05 30.1,-68.64 30.76,-76.34z"/>
   <path class="fil1" d="M1039.32 1724.89l32.95 -33.26c-32.75,-1.23 -77.95,-0.1 -112.98,-0.1 -11.54,0 -26.92,-2.24 -34.25,4.68 -7.77,7.33 -6.85,20.06 2.32,26.1 7.15,4.71 26.23,2.69 35.8,2.69 21.32,0 56.71,2.11 76.16,-0.11z"/>
   <path class="fil1" d="M1088.97 1323.71c-31.8,10.09 -18.4,57.42 14.77,47.77 29.84,-8.68 17.8,-58.1 -14.77,-47.77z"/>
   <path class="fil1" d="M1415.49 1456.5c-31.35,8.71 -18.6,57.87 14.67,47.87 21.09,-6.34 22.71,-35.19 5.77,-45.37 -6.23,-3.74 -13.25,-4.5 -20.44,-2.5z"/>
   <path class="fil1" d="M1631.16 1247.9c2.74,6.39 7.74,6.39 7.57,15.29 -0.16,8.97 -7.39,11.36 -8.29,15.37 1.16,12.39 42.22,17.9 44.26,-12.75 1.92,-28.77 -35.15,-34.85 -43.55,-17.91z"/>
   <path class="fil1" d="M1517.65 1303.21c4.73,-8.15 10.4,-23.6 14.1,-32.85 4.25,-10.62 14.08,-25.72 6.27,-35.77 -0.19,0.32 -0.52,0.41 -0.63,0.94l-2.5 3.27c-4.6,5.21 -21.96,20.56 -24.13,24.8 -4.01,7.83 4.1,11.43 4.29,20.37 0.1,4.56 -1.85,7.03 -2.45,11.61 -0.73,5.6 -0.2,9.41 5.04,7.64z"/>
   <path class="fil1" d="M1565.24 1323.24c9.06,7.64 -4.98,16.6 -13.57,16.85l1.34 -3c-4.39,2.32 -5.7,4.61 -8.32,6.97 15.28,3.61 15.53,5.14 33.59,-14.26l19.88 -20.1c1.62,-1.79 1.39,-1.95 2.96,-3.51 4.01,-3.99 0.92,-1.84 5.51,-3.56 -10.69,-5.28 -16.25,-3.32 -23.55,3.53 -2.95,2.77 -5.56,5.36 -8.38,8.39l-9.46 8.68z"/>
   <path class="fil1" d="M1591.73 1716.13c-3.73,-1.29 -5.41,-3.57 -7.1,-6.35 2.85,-3.34 4.38,-6.55 9.68,-8.22l5.02 5.32c-1.73,4.29 -4.76,6.77 -7.6,9.25zm-4.79 9.06c26.46,-1.45 86.13,1.02 118.44,0.27l7.9 -1.79c-12.92,1.79 -108.23,3.23 -115.73,-0.57l2.84 -5.72c9.73,-0.98 8.02,2.59 15.87,4.54l5.88 -5.77 -14.91 -6.53c-9.57,-31.74 -23.76,-6.7 -32.91,-0.52 2.65,7.44 9.22,10.24 12.62,16.1z"/>
   <path class="fil1" d="M1513.64 1311.63c2.92,-2.84 2.95,-4.79 4.01,-8.42 -5.25,1.77 -5.78,-2.04 -5.04,-7.64 0.6,-4.58 2.55,-7.05 2.45,-11.61 -0.19,-8.94 -8.3,-12.54 -4.29,-20.37 2.17,-4.24 19.54,-19.59 24.13,-24.8l2.5 -3.27c0.11,-0.53 0.44,-0.61 0.63,-0.94l-5.66 -4.75c0.57,3.58 2.65,-0.52 -5.88,8.13 -6.16,6.25 -21.19,19.46 -22.64,25.42 -2.72,11.16 6.92,15.61 4.07,25.48 -4.78,16.54 0.02,13.95 5.72,22.75z"/>
   <path class="fil1" d="M1039.32 1724.89l63.15 0.06 -1.94 -1.23c-3.76,-1.91 0.94,0.02 -2.91,-1.36 -7.6,-2.71 -12.99,-1.25 -19.15,0.78 -8.84,2.92 -19.08,1.05 -28.53,1.74 3.71,-6.78 25.49,-25.35 31.69,-33.35l-9.35 0.1 -32.95 33.26z"/>
   <path class="fil1" d="M1623.97 1691.59l-19.56 0.05c2.06,3.88 6.38,7.12 9.98,10.95 2.02,2.15 3.04,3.09 5.08,5.22 5.6,5.84 3.37,4.01 7.51,5l3.31 -4.19 -9.96 -11.72c0.88,-1.88 0.19,-0.7 1.35,-2.43 0.99,-1.45 1.38,-1.79 2.29,-2.88z"/>
   <path class="fil1" d="M1626.21 1255.1c9.78,3.85 6.15,10.43 1.06,16.64 0.83,-3.11 0.37,-0.35 -1.77,-1.89 1.36,4.78 1.36,5.52 4.95,8.71 0.9,-4.01 8.12,-6.4 8.29,-15.37 0.16,-8.91 -4.83,-8.91 -7.57,-15.29 -4.28,2.7 -3.28,2.59 -4.95,7.2z"/>
   <path class="fil1" d="M1591.73 1716.13c2.84,-2.48 5.87,-4.96 7.6,-9.25l-5.02 -5.32c-5.3,1.67 -6.84,4.87 -9.68,8.22 1.69,2.78 3.38,5.06 7.1,6.35z"/>
   <path class="fil1" d="M1553.01 1337.1l-1.34 3c8.59,-0.26 22.62,-9.22 13.57,-16.85 -3.34,5.13 -9.87,9.06 -12.23,13.86z"/>
   <path class="fil1" d="M1558.35 1725.27l22.28 -0.14c-1.9,-1.7 -4.25,-4.22 -6.59,-6.44 -8.5,0.01 -10.73,2.06 -15.69,6.58z"/>
   <path class="fil1" d="M1321.98 1506.73c8.68,-0.23 6.11,0.28 11.83,-4.54 4.45,-3.75 1.77,0.95 3.91,-3.99 1.2,-2.78 0.78,-4.76 0.48,-7.84l-16.22 16.37z"/>
   <path class="fil1" d="M1625.5 1269.85c2.14,1.54 2.6,-1.22 1.77,1.89 5.09,-6.22 8.72,-12.79 -1.06,-16.64 -2.24,-0.07 -1.34,12.4 -0.71,14.75z"/>
  </g>
 </g>
</svg>
