<?xml version="1.0" encoding="UTF-8"?>
<!DOCTYPE svg PUBLIC "-//W3C//DTD SVG 1.1//EN" "http://www.w3.org/Graphics/SVG/1.1/DTD/svg11.dtd">
<!-- Creator: CorelDRAW 2020 (64-Bit) -->
<svg xmlns="http://www.w3.org/2000/svg" xml:space="preserve" width="122.767mm" height="122.767mm" version="1.1" style="shape-rendering:geometricPrecision; text-rendering:geometricPrecision; image-rendering:optimizeQuality; fill-rule:evenodd; clip-rule:evenodd"
viewBox="0 0 4772.23 4772.23"
 xmlns:xlink="http://www.w3.org/1999/xlink"
 xmlns:xodm="http://www.corel.com/coreldraw/odm/2003">
 <defs>
  <style type="text/css">
   <![CDATA[
    .fil0 {fill:#E6E7E8}
    .fil1 {fill:#ED3237}
   ]]>
  </style>
 </defs>
 <g id="Layer_x0020_1">
  <metadata id="CorelCorpID_0Corel-Layer"/>
  <rect class="fil0" x="-0" y="-0" width="4772.23" height="4772.23"/>
  <g id="_2883005194576">
   <path class="fil1" d="M2218.47 3115.59l0.6 -54.25 36.17 -0.02 0.73 53.77c143.38,4.86 328.77,0 480.32,0.23 76.7,0.11 90.94,6.31 90.66,-75.76 -0.77,-218.67 0.72,-437.42 -0.02,-656.08l-18.49 2.14c5.6,-9.48 7.69,-15.46 7.81,-29.1 0.22,-24.79 0.05,-15.48 -7.8,-31.9l18.7 1.69 -0.04 -47.04c-25.65,13.36 -50.02,-0.72 -72.04,-1.74l0.76 766.75 -740.52 -0.05c0.39,-191.26 0.07,-382.61 0.07,-573.93 0,-328.15 26.64,-294.38 -128.19,-280.29 -43.26,3.93 -89.26,11.59 -132.08,14.11l-101.21 -364.81c52.5,-7.76 143.15,-41.99 199.5,-57.11 64.47,-17.31 145.08,-40.99 213.95,-49.52 27,141.4 179.75,213.54 322.65,212.48 115.51,-0.86 210.6,-39.67 274.17,-125.87 16.42,-22.27 33.96,-74.68 43.66,-86.46 71.43,14.81 136.18,29.53 205.66,48.27 56.68,15.28 151.98,50.82 202.9,57.92 -10.35,54.58 -66.77,211.29 -64.98,249.37l14.52 7.17 0.05 92.73c6.05,-3.59 10.51,-6.85 16.46,-11.48l18.69 -17.13c13.16,-33.92 98.63,-335.79 91.79,-354.07 -11.51,-30.72 -128.97,-55.71 -163.3,-65.34 -449.15,-125.88 -359.71,-98.66 -402.37,-0.2 -67.21,155.12 -293.27,162.13 -405.83,92.19 -40.52,-25.18 -79.01,-71.2 -90.63,-136.49 -10.84,-60.87 -37.98,-43.3 -165.3,-15.44 -62,13.57 -120.68,29.66 -180.34,47.19 -29.71,8.73 -59.5,17.67 -87.94,25.9 -158.67,45.9 -143.58,-4.85 -37.88,370.41 61.68,218.99 20.69,144.78 284.99,128.71 -2.18,54.08 -8.3,824.86 7.14,846.35 19.69,27.41 85.18,16.43 125.48,16.43 46.95,0 94.87,-0.59 141.56,0.28z"/>
   <path class="fil1" d="M3026.41 2166.68c11.57,6.53 2.38,81.38 4.19,99.64 -6.79,4.26 11.88,4.8 -13.74,4.14 24.52,15.87 56.73,-2.05 63.72,-27.11 7.63,-27.35 12.98,-56.38 20.55,-83.7l-18.69 17.13c-5.95,4.63 -10.41,7.89 -16.46,11.48l-0.05 -92.73 -14.52 -7.17c-7.06,6.9 -1.09,-7.01 -8.41,15.14 -1.85,5.59 -2.99,12.47 -4.84,19.2 -5.12,18.72 -8.87,25.4 -11.76,43.96z"/>
   <path class="fil1" d="M2918.39 2194.43c-0.49,23.73 -1.91,44.49 16.29,53.9 25.03,12.94 41.94,-6.29 59.48,-11.16l19.09 19.66c-4.75,7.41 -4.9,7.93 -10.04,14.75l13.65 -1.12c25.62,0.65 6.95,0.12 13.74,-4.14 -1.81,-18.26 7.38,-93.11 -4.19,-99.64l-11.26 37.31 -96.77 -9.56z"/>
   <path class="fil1" d="M2762.23 2209.55c-8.68,5.73 -2.85,-1.55 -5.57,9.86 -1.26,5.28 -1.16,12.58 -1.19,18.15 -0.06,13.84 0.25,25.94 -0.39,39.96 22.02,1.01 46.39,15.1 72.04,1.74l-0.43 -26.86 34.71 5.38c5.95,-29.06 13.92,-42.83 2.27,-69.55l-38.42 -4.56c6.08,21.83 16.96,53.9 -11.17,65.77 -34.5,14.57 -48.82,-11.67 -51.86,-39.89z"/>
   <path class="fil1" d="M2888.5 2255.94c5.7,3.7 -4.71,0.71 9.99,4.18l104.72 11.46c5.14,-6.82 5.29,-7.34 10.04,-14.75l-19.09 -19.66c-17.54,4.87 -34.45,24.1 -59.48,11.16 -18.2,-9.41 -16.79,-30.17 -16.29,-53.9l-31.03 -5.21c-7.71,22.6 -12.68,48.59 8.16,62.1l-7.01 4.62z"/>
   <path class="fil1" d="M2762.23 2209.55c3.03,28.22 17.36,54.45 51.86,39.89 28.13,-11.88 17.24,-43.95 11.17,-65.77 -32.91,-2.44 -60.45,-8.08 -63.02,25.89z"/>
   <polygon class="fil1" points="2218.47,3115.59 2255.98,3115.09 2255.25,3061.31 2219.08,3061.34 "/>
   <path class="fil1" d="M2861.39 2257.78l27.11 -1.83 7.01 -4.62c-20.84,-13.52 -15.87,-39.5 -8.16,-62.1l-23.69 -0.99c11.65,26.72 3.67,40.48 -2.27,69.55z"/>
   <path class="fil1" d="M2826.94 2383.48l0.22 -57.17 -18.7 -1.69c7.86,16.42 8.02,7.11 7.8,31.9 -0.12,13.64 -2.2,19.62 -7.81,29.1l18.49 -2.14z"/>
  </g>
 </g>
</svg>
