<?xml version="1.0" encoding="UTF-8"?>
<!DOCTYPE svg PUBLIC "-//W3C//DTD SVG 1.1//EN" "http://www.w3.org/Graphics/SVG/1.1/DTD/svg11.dtd">
<!-- Creator: CorelDRAW 2020 (64-Bit) -->
<svg xmlns="http://www.w3.org/2000/svg" xml:space="preserve" width="122.767mm" height="122.767mm" version="1.1" style="shape-rendering:geometricPrecision; text-rendering:geometricPrecision; image-rendering:optimizeQuality; fill-rule:evenodd; clip-rule:evenodd"
viewBox="0 0 1831.37 1831.37"
 xmlns:xlink="http://www.w3.org/1999/xlink"
 xmlns:xodm="http://www.corel.com/coreldraw/odm/2003">
 <defs>
  <style type="text/css">
   <![CDATA[
    .fil0 {fill:#E6E7E8}
    .fil1 {fill:#ED3237}
   ]]>
  </style>
 </defs>
 <g id="Layer_x0020_1">
  <metadata id="CorelCorpID_0Corel-Layer"/>
  <rect class="fil0" x="-0" y="-0" width="1831.37" height="1831.37"/>
  <g id="_2883008031792">
   <path class="fil1" d="M1323.76 902.34c0.11,49.07 0.01,98.18 0,147.26 -0.01,25.52 4.5,47.97 -16.65,57.34 -9.95,4.41 -56.85,1.97 -71.46,2.2 -12.42,0.19 -24.88,0.04 -37.34,0.04 -10.32,0 -25.85,1.44 -34.3,-2.76 -19.97,-9.92 -15.67,-32.8 -15.67,-57.52 0,-48.72 -0.66,-97.89 0.02,-146.58l175.4 0.03zm-647.47 197.95c-2.69,1.35 -6.1,6.84 -16.12,8.48 -6.31,1.03 -105,0.35 -119.2,0.37 -40.33,0.06 -33.15,-31.69 -33.15,-63.06l0 -143.77 175.4 0.03c0.48,34.16 0.02,68.67 0.02,102.87 0,21.61 0.72,56.16 -0.09,76.82 -0.38,9.75 -3.37,12.34 -6.85,18.26zm333.63 -147.56c27.33,-2.31 34.47,-5.56 54.45,-18.75 -2.83,16.59 -15.73,34.8 -26.99,46.25 -1.87,1.9 -3.31,2.68 -5.01,4.18 -10.43,9.2 -29.24,19.08 -43.09,20.8 4.91,-9.32 6.58,-8.02 12.66,-23.76 4,-10.35 5.21,-17.81 7.97,-28.72zm138.5 -65.28c-0.9,-41.89 -0.05,-84.72 -0.07,-126.71 -0,-9.67 -0.3,-19.67 5.05,-26.6 4.19,-5.43 10.21,-10.75 19.73,-11.66 7.44,-0.71 80.87,-0.14 94.94,-0.14 19.93,0 40.13,-4.2 50.94,12.1 5.52,8.32 4.76,15.86 4.76,27.01 0,41.7 0.95,84.51 -0.04,126.11l-175.31 -0.1zm-640.56 0.07c-1,-41.79 -0.04,-84.85 -0.04,-126.78 0,-11.14 -0.61,-18.79 5.02,-26.74 11.23,-15.84 30.61,-11.67 51.38,-11.67 13.29,0 88.33,-0.56 94.82,0.21 9.27,1.1 15.59,6.65 19.45,12.01 5.48,7.63 4.75,16.92 4.75,26.89 -0,41.76 0.83,84.35 -0.07,126.11l-175.3 -0.04zm575 -77.39l50.74 -0.02 -0.33 16.54 -50.49 0.04 0.08 -16.56zm-384.77 -0.01l44.18 0.2 -0.28 16.34 -43.96 0.03 0.06 -16.57zm341.95 -14.87l-0.34 2.84c-2.76,1.45 -2.17,-0.74 -3.3,2.11 1.68,1.39 0.08,0.67 2.6,0.67 6.01,0.01 9.64,0.11 4.83,9.42l24.04 -0.12c1.04,20.39 0.11,43.33 0.11,64 0,25.7 5.44,34.13 -14.45,48.96 -13.58,10.13 -28.4,14.37 -48.99,14.68 -13.98,0.21 -4.87,15.17 -18.95,44.24 -3.87,7.98 -7.4,13.56 -12.71,19 -7.88,8.06 -11.66,6.37 -25.4,6.37l-190.44 0.01 0.09 -197.31 264.24 0.04c1.96,-8.75 12.89,-8.21 15.45,0.13l2.1 -0.07 0.3 -2.98c3.15,-1.23 2.2,1.09 3.23,-2.11 -1.76,-2.01 -3.2,0.07 -7.81,-0.85 -4.09,-5.43 -0.24,-5.68 0.6,-9.03l-337.18 0.03c-0.3,-6.33 -0.81,-35.32 0.32,-39.79l434.81 -0.06c1.19,5.25 0.62,33 0.3,39.94l-93.46 -0.12zm-342.67 -54.7c-1.72,-2.9 -2.58,-7.13 -4.16,-10.18 -1.42,-2.76 -4.4,-6.19 -4.84,-8.02l454.81 0.01c-0.79,3.1 -6.04,6.85 -8.52,18.31l-437.3 -0.12zm-15.07 373.9l-0.42 -3.54c1.32,-1.08 3.44,-0.81 3.57,-2.36 0.47,-5.2 -10.11,6.05 -9.16,-8.25 2.51,-1.19 4.43,-3.47 6.45,-0.67 -0.84,4.71 -1.14,-0.46 -3.57,3.52 3.42,3.29 3.6,-1.97 8.55,1.91 2.02,1.58 -1.19,0.54 2.12,1.56l0.48 -1.09c-1.97,-0.98 -7.79,-8.23 -8.4,-9.99l2.7 -1.84c2.26,2.04 5.89,5.49 6.96,8.22l1.84 -0.66 0.25 -1.72c0.26,-2.74 -2.41,-5.1 -3.68,-5.74 -2.16,-1.09 -0.07,0.7 -1.91,-0.65l-2.09 -5.84 1.52 -1.97 2.39 2.23c0.1,0.08 0.28,0.25 0.43,0.36 1.79,-1.01 1.23,-1.14 3.23,-1.37 2.9,5.1 -3.27,1.41 1.7,7.59l1.43 -1.97c2.99,-13.7 1.29,-45.74 1.29,-61.6 0,-62.65 -0.64,-126.82 0.02,-189.14l44.28 0.37 -0.01 131.71c0,50.29 -4.83,48.65 17.81,48.65 7.28,0 14.56,-0.01 21.84,-0l131.05 0c24.73,0 62.28,2.34 84.62,-3.45 42.74,-11.08 76.38,-46.18 83.62,-91.16 2.37,-14.74 1.75,-68.28 1.49,-86.1l50.87 0.08c0.78,73.03 0.03,148.66 0.03,222.17 0,12.41 -1.09,22.94 3.17,34.06 3.24,8.47 10.47,16.08 16.84,19.82 11.16,6.54 16.54,6.36 30.62,6.39 12.24,0.03 24.44,-0.04 36.64,-0.07 24.63,-0.06 49.34,0.11 74,0.08 21.71,-0.03 37.71,-13.57 42.3,-31.34 2.37,-9.17 1.36,-25.68 1.36,-35.97l0 -295.91c0,-13.62 0.63,-20.06 -5.22,-31.37 -3.69,-7.13 -11.36,-14.47 -19.37,-18.03 -10.98,-4.88 -19.7,-3.81 -32.47,-3.81l-739.79 0c-13.36,-0 -20.12,0.64 -29.85,7.12 -6.93,4.61 -12.48,11.05 -16.18,20.49 -4.53,11.55 -2.58,56 -2.58,71.41l-0 259.28c0,20.47 -1.23,39.38 21.35,52.66 9.48,5.58 18.72,5.48 30.79,5.48l110.65 -0.02c8.83,0.04 22.25,-5.09 26.46,-9.49z"/>
   <path class="fil1" d="M596.39 787.1l49.38 0.3 -0.07 49.05 -49.28 0.04 -0.02 -49.38zm63.66 59.58c1.05,-2.53 0.51,-49.22 0.51,-58.48 0,-6.15 1.19,-13.01 -4.3,-15.25 -2.96,-1.21 -48.68,-0.63 -58.24,-0.64 -6.44,-0.01 -13.22,-1.16 -15.59,3.89 -1.59,3.37 -0.79,48.57 -0.8,58.5 0,6.18 -1.06,13.76 4.07,15.88 3.53,1.46 48.77,0.71 58.83,0.71 6.86,0 13.18,1.07 15.53,-4.61z"/>
   <path class="fil1" d="M1264.88 876.03l48.85 0.08c0.52,-3.76 0.77,-17.4 -0.23,-20.6l-48.69 0.09 0.07 20.42z"/>
   <path class="fil1" d="M1038.94 810.2l4.9 0.07c4.81,-9.31 1.18,-9.41 -4.83,-9.42 -2.52,-0 -0.92,0.71 -2.6,-0.67 1.13,-2.86 0.55,-0.66 3.3,-2.11l0.34 -2.84 -4.78 0.01c-0.84,3.35 -4.69,3.6 -0.6,9.03 4.61,0.93 6.05,-1.16 7.81,0.85 -1.03,3.21 -0.08,0.89 -3.23,2.11l-0.3 2.98z"/>
   <path class="fil1" d="M676.29 1100.28c-0.95,14.3 9.63,3.04 9.16,8.25 -0.14,1.55 -2.25,1.28 -3.57,2.36l0.42 3.54c3.06,-2.05 5.73,-4.91 7.53,-7.82 -3.31,-1.02 -0.1,0.02 -2.12,-1.56 -4.96,-3.88 -5.13,1.38 -8.55,-1.91 2.43,-3.99 2.73,1.19 3.57,-3.52 -2.01,-2.81 -3.94,-0.53 -6.45,0.67z"/>
   <path class="fil1" d="M1021.38 810.14l15.45 0.13c-2.57,-8.33 -13.49,-8.88 -15.45,-0.13z"/>
   <path class="fil1" d="M693.67 1099.53c1.38,-1.43 2.61,-5.55 3.01,-7.36l-1.43 1.97c-4.97,-6.18 1.2,-2.48 -1.7,-7.59 -2,0.23 -1.44,0.35 -3.23,1.37 -0.15,-0.11 -0.34,-0.28 -0.43,-0.36l-2.39 -2.23 -1.52 1.97 2.09 5.84c1.85,1.35 -0.24,-0.44 1.91,0.65 1.27,0.64 3.94,3 3.68,5.74z"/>
   <path class="fil1" d="M690.31 1105.52l3.11 -4.27 -1.84 0.66c-1.07,-2.73 -4.7,-6.18 -6.96,-8.22l-2.7 1.84c0.6,1.76 6.42,9.01 8.4,9.99z"/>
  </g>
 </g>
</svg>
